<svg width="48" version="1.0" xmlns="http://www.w3.org/2000/svg" height="48" xmlns:xlink="http://www.w3.org/1999/xlink">
<defs id="defs5">
<linearGradient id="linearGradient6377">
<stop offset="0" style="stop-color:#fff27e" id="stop6379"/>
<stop offset="1" style="stop-color:#edcb00" id="stop6381"/>
</linearGradient>
<linearGradient id="linearGradient3786">
<stop offset="0" style="stop-color:#ba5e00" id="stop3788"/>
<stop offset="1" style="stop-color:#ba6c00;stop-opacity:.314" id="stop3790"/>
</linearGradient>
<linearGradient xlink:href="#linearGradient3786" id="linearGradient3792" y1="36.910137" x1="6.483892" y2="43.388893" x2="6.6" gradientUnits="userSpaceOnUse"/>
<linearGradient id="linearGradient6417">
<stop offset="0" id="stop6419"/>
<stop offset="1" style="stop-opacity:0" id="stop6421"/>
</linearGradient>
<linearGradient id="linearGradient2772">
<stop offset="0" style="stop-color:#fff" id="stop2774"/>
<stop offset="1" style="stop-color:#9cf" id="stop2776"/>
</linearGradient>
<radialGradient fx="19.812624" fy="13.953795" cx="19.812624" cy="13.953795" gradientTransform="matrix(0.81397743,-0.69057134,0.31101164,0.36658989,-0.65419757,22.625284)" spreadMethod="reflect" xlink:href="#linearGradient2772" id="radialGradient4038" r="17.303488" gradientUnits="userSpaceOnUse"/>
<radialGradient fx="39.907337" fy="31.780704" cx="39.907337" cy="31.780704" gradientTransform="matrix(1.0586628,0,0,0.38254218,-2.1066214,22.515669)" xlink:href="#linearGradient6417" id="radialGradient3056" r="5.2591066" gradientUnits="userSpaceOnUse"/>
<radialGradient fx="45.150326" fy="35.915409" cx="45.150326" cy="35.915409" gradientTransform="matrix(1.7676617,0,0,1.2920778,-34.118124,-13.580785)" xlink:href="#linearGradient6377" id="radialGradient3053" r="21.626934" gradientUnits="userSpaceOnUse"/>
</defs>
<g style="fill-rule:evenodd;color:#000">
<path style="fill:#dcc300;stroke:#c4a000;stroke-width:1.059" id="rect1975" d="m 9.34,14.25 29.789,.4873 c 0.807305,0 1.31688,0.610473 1.45724,1.26387 l 4.6595,20.9775 .0132,6.72 c 0,0.700183 -0.649932,1.26387 -1.45724,1.26387 h -39.6753 c -0.807311,0 -1.45724,-0.563685 -1.45724,-1.26387 l -.0119,-7.2287 4.5347,-20.169 Z "/>
<g>
<rect width="39.814281" x="4.0702395" y="36.978008" rx="0.69270951" height="6.4700456" ry="0.62159562" style="opacity:.5;fill:url(#linearGradient3792)" id="rect2851"/>
<path style="opacity:.466;fill:url(#radialGradient3056)" id="path6415" d="m 44.68,36.685 c -0.401572,-1.32897 -0.935732,-4.02365 -0.935732,-4.02365 l -9.4509,3.3686 c 6.08226,0 9.07661,-0.28072 10.3866,0.655012 z"/>
</g>
<path style="fill:url(#radialGradient3053);stroke:#c4a000;stroke-width:1.059" id="path2524" d="m 2.914,35.3878 c 0,0 22.6316,0.132334 30.8934,0.132334 8.44872,0 11.8094,-3.14255 11.8094,-3.14255 0,0 -1.0658,-0.48009 -2.4615,-5.25808 l -2.5448,-11.1164 c -0.490623,-1.256 -0.906432,-1.76126 -1.85942,-1.75341 L 9.34,14.25 c -1.7734314,0 -1.8795315,0.853196 -2.148,2.051 z"/>
<path style="opacity:.3" id="path3618" d="m 58.75,323 c 52.7437,-25.3597 85.017,-51.5316 106.5,-76.75 -23.1621,-16.5702 -16.3568,-15.2774 4.5,-7.25 9.81312,3.77692 26.75,4 45.75,-28 14.5861,-24.5661 27.5,-35 27.5,-35 -16.4204,1.83647 -45.033,-3.33251 4.25,-8.625 21.1897,-26.0263 47.6057,-48.5684 72.5,-72.125 -48.101,19.6037 -30.942,-1.27636 8.875,-7.625 26.5665,-36.342 75.3697,-55.8709 129,-71.75 -37.0127,1.3107 -77.5604,-0.163738 -93.5,17.75 l .25,-8.625 c -35.9643,8.9448 -120.915,39.7979 -123.252,46.5333 -1.79531,5.17418 -7.70271,16.7313 -10.695,27.6656 -0.9295,-6.63711 -0.72035,-13.9574 0.70711,-22.0087 -25.082,11.377 -71.4247,46.0241 -73.4507,54.2704 -1.17198,4.77015 -4.21779,41.1163 -1.59099,57.2756 -8.65822,-13.4193 -9.85144,-30.2318 -11.3869,-46.8887 -8.81853,8.95956 -45.0501,23.5387 -38.2873,93.9113 -7.49114,-8.30429 -6.00329,-21.5969 -8.13173,-32.8805 -24.0123,30.606 -45.1937,75.989 -44.2878,121.122" transform="matrix(0.08673677,0.06988179,0,0.12050451,6.1343527,-14.510186)"/>
<path style="fill:url(#radialGradient4038);stroke:#003264;stroke-width:.3" id="path2906" d="m 11.0649,26.5638 c 4.80979,-0.519818 7.50336,-2.28955 9.11379,-4.52991 -2.76096,-3.54673 -2.03349,-2.99186 0.291261,-0.73736 1.0938,1.06074 2.83421,2.03375 4.03146,-1.26878 0.919118,-2.53532 1.99783,-3.23822 1.99783,-3.23822 -1.63927,-0.663646 -4.69167,-2.96033 0.233452,-0.938615 1.56147,-2.36675 3.73995,-3.96792 5.73878,-5.79201 -4.46892,-0.006 -3.2,-1.89596 0.7307,-0.544966 1.87077,-3.47301 6.41338,-3.4177 11.536,-2.59645 -3.76127,-1.88133 -7.94991,-4.33887 -9.16347,-2.78526 l -.1763,-1.1612 c -3.4751,-0.782848 -11.4558,-1.307 -11.5375,-0.519371 -0.06277,0.605059 -0.397369,1.85092 -0.447894,3.17418 -0.25064,-0.956028 -0.400623,-1.94177 -0.442907,-2.9593 -2.30326,0.15418 -6.23978,2.29565 -6.25426,3.30644 -0.0084,0.584701 0.530655,5.3673 1.17816,7.71519 -1.20126,-2.31023 -1.71718,-4.66732 -2.26453,-7.02226 -0.693665,0.72994 -4.06421,0.699894 -1.72354,10.6644 -0.96192,-1.54836 -1.12075,-3.27666 -1.60302,-4.93249 -1.7434,2.83364 -2.85077,7.83819 -1.70114,14.0379"/>
<path style="fill:#c7a272;stroke:#000;stroke-linejoin:round;stroke-linecap:round;stroke-width:.211" id="path1873" d="m 7.8532,33.3116 .3394,.1844 c 0.505272,-1.15896 1.21006,-1.64828 2.48665,-2.01533 0,0 0.39192,-4.4661 2.17511,-8.03951 3.75512,-6.7184 9.4252,-11.7399 15.5077,-16.5814 -9.91914,6.22721 -17.6422,14.3281 -20.5089,26.4519 Z "/>
</g>
<path id="path3810" d="m 7.8684,33.3012 .3032,.1161 c 0.443317,-1.01893 1.08592,-1.578 2.12454,-1.76688 l -1.5006,-1.4725 z "/>
</svg>
