<svg width="48" version="1.0" xmlns="http://www.w3.org/2000/svg" height="48" xmlns:xlink="http://www.w3.org/1999/xlink">
<defs>
<linearGradient id="linearGradient6417">
<stop offset="0"/>
<stop offset="1" style="stop-opacity:0"/>
</linearGradient>
<linearGradient id="linearGradient2772">
<stop offset="0" style="stop-color:#fff"/>
<stop offset="1" style="stop-color:#9cf"/>
</linearGradient>
<linearGradient id="linearGradient3786">
<stop offset="0" style="stop-color:#ba5e00"/>
<stop offset="1" style="stop-color:#ba6c00;stop-opacity:.314"/>
</linearGradient>
<linearGradient id="linearGradient6377">
<stop offset="0" style="stop-color:#fff27e"/>
<stop offset="1" style="stop-color:#edcb00"/>
</linearGradient>
<linearGradient xlink:href="#linearGradient3786" id="linearGradient3792" y1="36.910137" x1="6.483892" y2="43.388893" x2="6.6" gradientUnits="userSpaceOnUse"/>
<radialGradient fx="45.150326" fy="35.915409" cx="45.150326" cy="35.915409" gradientTransform="matrix(1.7676617,0,0,1.2920778,-34.118124,-13.580785)" xlink:href="#linearGradient6377" id="radialGradient390" r="21.626934" gradientUnits="userSpaceOnUse"/>
<radialGradient fx="39.907337" fy="31.780704" cx="39.907337" cy="31.780704" gradientTransform="matrix(1.0586628,0,0,0.38254218,-2.1066214,22.515669)" xlink:href="#linearGradient6417" id="radialGradient3056" r="5.2591066" gradientUnits="userSpaceOnUse"/>
<radialGradient fx="19.812624" fy="13.953795" cx="19.812624" cy="13.953795" gradientTransform="matrix(0.81397743,-0.69057134,0.31101164,0.36658989,-0.65419757,22.625284)" spreadMethod="reflect" xlink:href="#linearGradient2772" id="radialGradient4038" r="17.303488" gradientUnits="userSpaceOnUse"/>
</defs>
<g style="color:#000;fill-rule:evenodd">
<path style="fill:#dcc300;stroke:#c4a000;stroke-width:1.059" d="m 9.34,14.25 29.789,.4873 c 0.807305,0 1.31688,0.610473 1.45724,1.26387 l 4.6595,20.9775 .0132,6.72 c 0,0.700183 -0.649932,1.26387 -1.45724,1.26387 h -39.6753 c -0.807311,0 -1.45724,-0.563685 -1.45724,-1.26387 l -.0119,-7.2287 4.5347,-20.169 z "/>
<rect width="39.814281" x="4.0702395" y="36.978008" rx="0.69270951" height="6.4700456" ry="0.62159562" style="opacity:.5;fill:url(#linearGradient3792)"/>
<path style="opacity:.466;fill:url(#radialGradient3056)" d="m 44.68,36.685 c -0.401572,-1.32897 -0.935732,-4.02365 -0.935732,-4.02365 l -9.4509,3.3686 c 6.08226,0 9.07661,-0.28072 10.3866,0.655012 z"/>
<path style="fill:url(#radialGradient390);stroke:#c4a000;stroke-width:1.059" d="m 2.914,35.3878 c 0,0 22.6316,0.132334 30.8934,0.132334 8.44872,0 11.8094,-3.14255 11.8094,-3.14255 0,0 -1.0658,-0.48009 -2.4615,-5.25808 l -2.5448,-11.1164 c -0.490623,-1.256 -0.906432,-1.76126 -1.85942,-1.75341 L 9.34,14.25 c -1.7734314,0 -1.8795315,0.853196 -2.148,2.051 z"/>
<path style="opacity:.3;stroke-width:.102" d="m 16.625,13.7207 c -0.856744,0.932584 -1.56577,2.9448 -1.25977,7.61523 -0.649756,-1.5242 -0.520464,-3.02083 -0.705078,-4.5293 -2.08275,2.01014 -3.92037,5.99797 -3.8418,11.5 l .4121,.2109 c 4.57481,0.629865 7.37296,-0.267028 9.23633,-1.80469 -2.009,-3.61539 -1.41842,-2.98539 0.390625,-0.560547 0.851158,1.14089 2.32075,2.35261 3.96875,-0.175782 1.26515,-1.94102 2.38477,-2.29688 2.38477,-2.29687 -1.42425,-0.926184 -3.9055,-3.5484 0.36914,-0.742188 1.83792,-1.65551 4.12981,-2.52598 6.28906,-3.625 -4.17212,-1 -2.68406,-2.31627 0.769531,-0.298828 1.57844,-1.72816 4.06173,-1.77552 6.96484,-1.04492 l -.4707,-2.0547 c -1.4731,-0.94433 -2.7176,-1.45357 -3.41602,-0.925781 l .0215,-1.0234 c -0.171456,-0.078893 -0.359455,-0.161122 -0.554687,-0.244141 h -17.4902 c -0.097191,1.53114 -0.177827,3.93948 -0.019531,5.41992 -0.629596,-1.86295 -0.801481,-3.646 -0.919922,-5.41992 h -2.12891 z "/>
<path style="fill:url(#radialGradient4038);stroke:#003264;stroke-width:.3" d="m 11.0649,26.5638 c 4.80979,-0.519818 7.50336,-2.28955 9.11379,-4.52991 -2.76096,-3.54673 -2.03349,-2.99186 0.291261,-0.73736 1.0938,1.06074 2.83421,2.03375 4.03146,-1.26878 0.919118,-2.53532 1.99783,-3.23822 1.99783,-3.23822 -1.63927,-0.663646 -4.69167,-2.96033 0.233452,-0.938615 1.56147,-2.36675 3.73995,-3.96792 5.73878,-5.79201 -4.46892,-0.006 -3.2,-1.89596 0.7307,-0.544966 1.87077,-3.47301 6.41338,-3.4177 11.536,-2.59645 -3.76127,-1.88133 -7.94991,-4.33887 -9.16347,-2.78526 l -.1763,-1.1612 c -3.4751,-0.782848 -11.4558,-1.307 -11.5375,-0.519371 -0.06277,0.605059 -0.397369,1.85092 -0.447894,3.17418 -0.25064,-0.956028 -0.400623,-1.94177 -0.442907,-2.9593 -2.30326,0.15418 -6.23978,2.29565 -6.25426,3.30644 -0.0084,0.584701 0.530655,5.3673 1.17816,7.71519 -1.20126,-2.31023 -1.71718,-4.66732 -2.26453,-7.02226 -0.693665,0.72994 -4.06421,0.699894 -1.72354,10.6644 -0.96192,-1.54836 -1.12075,-3.27666 -1.60302,-4.93249 -1.7434,2.83364 -2.85077,7.83819 -1.70114,14.0379"/>
<path style="fill:#c7a272;stroke:#000;stroke-linejoin:round;stroke-linecap:round;stroke-width:.211" d="m 7.8532,33.3116 .3394,.1844 c 0.505272,-1.15896 1.21006,-1.64828 2.48665,-2.01533 0,0 0.39192,-4.4661 2.17511,-8.03951 3.75512,-6.7184 9.4252,-11.7399 15.5077,-16.5814 -9.91914,6.22721 -17.6422,14.3281 -20.5089,26.4519 z "/>
</g>
<path d="m 7.8684,33.3012 .3032,.1161 c 0.443317,-1.01893 1.08592,-1.578 2.12454,-1.76688 l -1.5006,-1.4725 z "/>
</svg>
