<svg width="128" version="1.0" xmlns="http://www.w3.org/2000/svg" height="128" xmlns:xlink="http://www.w3.org/1999/xlink">
<defs id="defs3671">
<clipPath id="clipPath4258">
<path style="fill:url(#linearGradient4262);stroke:none;stroke-linecap:square;stroke-width:7.087;stroke-dashoffset:4.15" id="path4260" d="m -826.9042,227.3438 c -31.7251,0 -57.5312,25.8061 -57.5312,57.5312 0,31.7251 25.8061,57.5312 57.5312,57.5312 31.7251,0 57.5625,-25.8061 57.5625,-57.5312 0,-31.7252 -25.8374,-57.5312 -57.5625,-57.5312 z  m 0,18.3125 c 7.04403,0 13.6045,1.91307 19.3125,5.15625 l -53.375,53.375 c -3.24318,-5.70802 -5.15625,-12.2685 -5.15625,-19.3125 0,-21.688 17.5307,-39.2188 39.2188,-39.2188 z  m 35.5625,22.7812 c 2.32832,5.00216 3.65625,10.5543 3.65625,16.4375 0,21.688 -17.5307,39.2188 -39.2188,39.2188 -5.88323,1e-05 -11.4353,-1.32793 -16.4375,-3.65625 l 52,-52 z "/>
</clipPath>
<linearGradient id="linearGradient3671">
<stop offset="0" style="stop-color:#1a0000" id="stop3673"/>
<stop offset="1" style="stop-color:#a20000;stop-opacity:0" id="stop3675"/>
</linearGradient>
<linearGradient gradientTransform="translate(-827.27922,0)" id="linearGradient4262" xlink:href="#linearGradient3671" y1="365.3761" x1="11.843751" y2="206.375" x2="19.390625" gradientUnits="userSpaceOnUse"/>
</defs>
<path style="fill:#ff3219;stroke:none" id="path4059" d="m 63.9848,8 c -30.8724,0 -55.9848,25.1192 -55.9848,56 1.77636e-15,30.8808 25.1124,56 55.9848,56 30.8724,0 56.0152,-25.1192 56.0152,-56 0,-30.8808 -25.1428,-56 -56.0152,-56 z  m 0,17.8251 c 6.85469,0 13.2388,1.86215 18.7934,5.01901 l -51.9403,51.9544 c -3.156,-5.5561 -5.01764,-11.9419 -5.01764,-18.7985 0,-21.1108 17.0595,-38.1749 38.1645,-38.1749 z  m 34.6066,22.1749 c 2.26573,4.86902 3.55797,10.2734 3.55797,16 -1e-05,21.1108 -17.0595,38.1749 -38.1645,38.1749 -5.72508,1e-05 -11.128,-1.29259 -15.9956,-3.55894 l 50.6022,-50.616 z "/>
</svg>
