<svg width="128" version="1.0" xmlns="http://www.w3.org/2000/svg" height="128" style="enable-background:new">
<path style="fill:#429cd6;font-family:Sans;text-align:start;stroke:none;line-height:normal;text-indent:0;color:#000;text-transform:none" id="path3503" d="m 99.3438,23.0625 c -1.32292,0.0022 -2.63642,0.555283 -3.5625,1.5 0,0 -29.0475,29.8014 -41.375,42.4375 -8.83106,-9.05062 -22.1875,-22.75 -22.1875,-22.75 -1.85699,-1.90217 -5.29926,-1.90217 -7.15625,0 l -12.6562,12.9688 c -1.79082,1.84338 -1.79082,5.12537 0,6.96875 l 38.4062,39.3438 c 1.85699,1.90217 5.29926,1.90217 7.15625,0 l 57.625,-59.0312 c 1.80903,-1.84594 1.80903,-5.15406 0,-7 l -12.6562,-12.9375 c -0.93337,-0.952172 -2.26042,-1.50607 -3.59375,-1.5 z "/>
</svg>
