<svg width="16" version="1.1" xmlns="http://www.w3.org/2000/svg" height="16">
<defs id="defs1">
<style type="text/css" id="current-color-scheme">
.ColorScheme-Text {
color:#000;
}
</style>
</defs>
<path style="fill:currentColor;fill-opacity:1;stroke:none" d="m 7.4863,0 c -4.13029,0 -7.48633,3.35603 -7.48633,7.48633 0,4.13029 3.35604,7.48633 7.48633,7.48633 4.13029,0 7.48633,-3.35604 7.48633,-7.48633 0,-4.1303 -3.35604,-7.48633 -7.48633,-7.48633 z  m 0,1.4863 c 3.31838,0 6,2.68162 6,6 0,3.31838 -2.68162,6 -6,6 -3.31838,0 -6,-2.68162 -6,-6 2.22045e-16,-3.31838 2.68162,-6 6,-6 z  m 2.9746,2.5078 a 0.5,0.5 0 0,0 -0.054688,0.0058594 0.5,0.5 0 0,0 -0.25,0.15625 l -2.6562,2.6562 -1.6562,-1.6562 a 0.5,0.5 0 1,0 -0.6875,0.6875 l 2,2 a 0.5,0.5 0 0,0 0.6875,0 l 3,-3 a 0.5,0.5 0 0,0 -0.382812,-0.849609 z " class="ColorScheme-Text"/>
</svg>
