<svg width="48" version="1.0" xmlns="http://www.w3.org/2000/svg" viewBox="0 0 48 48" height="48">
<path style="opacity:.6;fill:#fff;stroke:#fff" id="path4137" d="m 40.7053,11.4997 c -2.58472,-3.30688 -3.03405,-3.45491 -6.2341,-0.864649 l -2.5815,2.0896 c -1.86876,-1.18818 -4.173,-1.94325 -6.40363,-2.23386 l -.7554,-3.0871 c -1.03802,-4.2422 -2.87785,-4.06177 -6.43617,-3.06751 -3.96877,1.09486 -4.78274,1.77265 -3.74738,5.7879 l .7632,2.9598 c -0.270216,0.238879 -0.645386,0.522403 -0.915602,0.761283 -1.12551,0.850567 -2.01214,1.97135 -2.79381,3.0475 l -2.9931,-.7719 c -4.04212,-1.04246 -3.4236,0.679894 -4.44409,4.12128 -1.25084,4.04681 -2.40209,4.64132 1.69169,5.72541 l 3.1427,.8322 c 0.071254,1.33305 0.397058,2.68177 0.97741,4.04616 l -2.6985,1.8556 c -3.51605,2.41771 -1.78431,3.14744 0.602929,6.03854 2.58472,3.30688 2.44894,4.21554 5.649,1.62528 l 2.5815,-2.0896 c 1.86876,1.18818 4.173,1.94325 6.40363,2.23385 l .7554,3.0871 c 1.03802,4.2422 2.29275,2.65753 5.85107,1.66327 3.96877,-1.09485 5.36784,-0.368369 4.33248,-4.38365 l -.7632,-2.9598 c 0.270217,-0.238885 0.645387,-0.522405 0.915604,-0.761283 1.12551,-0.850566 2.01214,-1.97136 2.79382,-3.04749 l 2.9931,.7719 c 3.87629,1.54913 3.4236,-0.679892 4.44409,-4.12128 1.25084,-4.04681 2.40209,-4.64133 -1.69168,-5.72541 l -3.1427,-.8322 c -0.07125,-1.33306 -0.397057,-2.68177 -0.977408,-4.04616 l 2.5815,-2.0896 c 3.31669,-2.68467 2.48643,-3.67403 0.09919,-6.56513 z  m -13.2505,17.9804 c -2.58154,2.08961 -6.44442,1.74964 -8.63898,-0.787265 -2.19456,-2.5369 -1.74964,-6.44441 0.787268,-8.63898 2.58155,-2.08961 6.44441,-1.74964 8.63898,0.787268 2.08961,2.58155 1.74964,6.44441 -0.787268,8.63898 z "/>
<path style="fill:#919191;stroke:#919191" id="path9" d="m 40.1202,10.7602 c -2.58472,-3.30688 -2.44895,-4.21554 -5.649,-1.62528 l -2.5815,2.0896 c -1.86876,-1.18818 -4.173,-1.94325 -6.40363,-2.23386 l -.7554,-3.0871 c -1.03802,-4.2422 -2.29275,-2.65753 -5.85107,-1.66327 -3.96877,1.09486 -5.36784,0.368409 -4.33248,4.38366 l .7632,2.9598 c -0.270216,0.238879 -0.645386,0.522403 -0.915602,0.761283 -1.12551,0.850567 -2.01214,1.97135 -2.79381,3.0475 l -2.9931,-.7719 c -4.04212,-1.04246 -3.4236,0.679894 -4.44409,4.12128 -1.25084,4.04681 -2.40209,4.64132 1.69169,5.72541 l 3.1427,.8322 c 0.071254,1.33305 0.397058,2.68177 0.97741,4.04616 l -2.5815,2.0896 c -3.31669,2.68467 -1.90133,2.9134 0.485909,5.8045 2.58472,3.30688 2.44894,4.21554 5.649,1.62528 l 2.5815,-2.0896 c 1.86876,1.18818 4.173,1.94325 6.40363,2.23385 l .7554,3.0871 c 1.03802,4.2422 2.29275,2.65753 5.85107,1.66327 3.96877,-1.09485 5.36784,-0.368369 4.33248,-4.38365 l -.7632,-2.9598 c 0.270217,-0.238885 0.645387,-0.522405 0.915604,-0.761283 1.12551,-0.850566 2.01214,-1.97136 2.79382,-3.04749 l 2.9931,.7719 c 3.87629,1.54913 3.4236,-0.679892 4.44409,-4.12128 1.25084,-4.04681 2.40209,-4.64133 -1.69168,-5.72541 l -3.1427,-.8322 c -0.07125,-1.33306 -0.397057,-2.68177 -0.977408,-4.04616 l 2.5815,-2.0896 c 3.31669,-2.68467 1.90133,-2.9134 -0.485912,-5.8045 z  m -12.6654,17.7195 c -2.58154,2.08961 -6.44442,1.74964 -8.63898,-0.787265 -2.19456,-2.5369 -1.74964,-6.44441 0.787268,-8.63898 2.58155,-2.08961 6.44441,-1.74964 8.63898,0.787268 2.08961,2.58155 1.74964,6.44441 -0.787266,8.63898 z "/>
</svg>
