<svg width="160" version="1.0" xmlns="http://www.w3.org/2000/svg" height="160" xmlns:xlink="http://www.w3.org/1999/xlink">
<defs id="defs3">
<linearGradient gradientTransform="translate(0.34756813,1.2031)" id="linearGradient3849" xlink:href="#linearGradient3770" y1="23.72045" y2="23.72045" x1="34.265" x2="45.4021" gradientUnits="userSpaceOnUse"/>
<linearGradient id="linearGradient3770">
<stop offset="0" style="stop-color:#ffda7d" id="stop3772"/>
<stop offset="0.30000001" style="stop-color:#ffda7d" id="stop3782"/>
<stop offset="0.30000001" style="stop-color:#ffc941" id="stop3780"/>
<stop offset="0.60000002" style="stop-color:#ffc941" id="stop3784"/>
<stop offset="0.60000002" style="stop-color:#dc9e00" id="stop3778"/>
<stop offset="1" style="stop-color:#dc9e00" id="stop3774"/>
</linearGradient>
</defs>
<g id="g4205" transform="translate(-1e-4,0)">
<g style="fill-rule:evenodd;stroke:none" id="g4185">
<path style="fill:#646464;stroke-width:2" id="path2861" d="m 9.8812,10.6534 125.9201,-4e-4 14.3177,22.666 0,116.028 -140.0936,-4e-4 z"/>
<path style="opacity:.3;fill:#6e6e6e;fill-opacity:0" id="path4604" d="m 9.8812,10.6534 125.9201,-4e-4 14.3176,22.666 -1.0977,114.3623 -138.9958,1.6653 z"/>
</g>
<g style="stroke-width:1.737" id="g4189">
<rect width="86.521606" x="36.415855" y="91.721077" rx="7.599535" height="43.164425" ry="6.8321171" style="fill:#fff;fill-rule:evenodd;stroke:none" id="rect6597" transform="matrix(0.99999882,-0.00153932,0.00285462,0.99999593,0,0)"/>
<g style="fill:none;stroke:#3f3f3f" id="g4192">
<path id="path7227" d="m 47.2599,102.2701 66.7972,.1475 -66.7972,-.1475 z "/>
<path id="path7229" d="m 47.2202,113.0409 66.7972,.1475 -66.7972,-.1475 z "/>
<path id="path7230" d="m 47.5029,124.5756 66.7972,.1475 -66.7972,-.1475 z "/>
</g>
</g>
<g style="fill-rule:evenodd" id="g3807" transform="matrix(1.2034208,0.66260332,-0.58671595,1.3590743,34.285524,-84.900545)">
<g style="stroke:none" id="g51">
<rect width="53.972744" x="15.639956" y="67.917763" rx="0" height="27.910049" ry="0.53317964" style="fill:#fff;stroke-width:1.25" id="rect4105" transform="matrix(0.89846212,-0.43905105,0.4392294,0.89837494,0,0)"/>
<path style="fill:#636363;stroke-width:1.141" id="rect4729" d="m 47.3914,70.1597 17.2257,-.0752 .0999,22.8901 -17.2257,.0752 Z " transform="matrix(0.900765,-0.434306,0.434306,0.900765,0,0)"/>
</g>
</g>
</g>
<g style="fill-rule:evenodd;stroke:none" id="g4270" transform="matrix(2.4465802,2.4465802,-3.3441525,3.3441525,864.52665,553.10502)">
<g id="g4211" transform="translate(-297.2198,24.135594)">
<path style="fill:#d57000" id="path3801" d="m 35.4709,2.7213 c -0.450182,0.433162 -0.756585,1.11931 -0.75686,1.71227 l -0.0329,4.8821 11.0599,0.0048 0.0329,-4.8821 c 4.54e-4,-0.975182 -0.929486,-2.1394 -1.80318,-2.1399 l -7.5926,2e-4 c -0.318749,-1.846e-4 -0.637175,0.162714 -0.907284,0.422614 z"/>
<path style="fill:#d0d0d0" id="path3799" d="m 34.707,9.3157 -.0127,5.0904 11.0599,.0044 .0127,-5.09 z "/>
<path style="fill:url(#linearGradient3849)" id="path3797" d="m 34.6898,14.4037 -.0772,21.0397 11.1201,-.0145 .017,-21.0203 z "/>
<path style="fill:#e9d078" id="path1918" d="m 34.6698,35.4337 5.5406,10.1741 5.5193,-10.1692 -11.0599,-.0048 Z "/>
</g>
<path id="path3803" d="m -260.0502,64.1693 3.0408,5.5741 3.0192,-5.5692 -6.06,-.0048 z "/>
</g>
</svg>
