<svg width="128" version="1.1" xmlns="http://www.w3.org/2000/svg" height="128" xmlns:xlink="http://www.w3.org/1999/xlink" style="display:inline;enable-background:new">
<defs id="defs4">
<clipPath id="clipPath3914" clipPathUnits="userSpaceOnUse">
<path style="fill:#fff" id="path3916" d="m 17,8 0,112 h 57.5 c 1.67528,0 3.9143,-0.56468 7,-3.6 8.87005,-8.72523 20.2405,-19.8518 27.499,-27.176 2.44056,-2.46261 3.00096,-4.47117 3.00096,-6.72404 v -74.5 z "/>
</clipPath>
<clipPath id="clipPath6093-7-7" clipPathUnits="userSpaceOnUse">
<path style="fill:#fff" id="path6095-4-6" d="m 17,8 .7828,110 57.5,0 c 1.67528,0 3.11942,0.18058 4.9,-1.6 8.79793,-8.79794 19.7576,-19.8518 27.0162,-27.176 2.44056,-2.46261 2.80096,-4.47117 2.80096,-6.72404 v -74.5 z "/>
</clipPath>
<clipPath id="clipPath4515" clipPathUnits="userSpaceOnUse">
<rect width="163.5" x="-5.7006001" y="885.69556" rx="9.5983782" height="138.5" ry="9.5983782" style="fill:#737373;stroke:none;fill-opacity:.899" id="rect4517"/>
</clipPath>
<clipPath id="clipPath3748-8" clipPathUnits="userSpaceOnUse">
<rect width="213.328" x="-32.3325" y="-23.024727" rx="9.5983782" height="66.665001" ry="9.5983782" style="fill:#737373;stroke:none;fill-opacity:.899" id="rect3750-3"/>
</clipPath>
<clipPath id="clipPath3834" clipPathUnits="userSpaceOnUse">
<rect width="116.00004" x="6" y="941.36218" rx="4" height="31.5" ry="4" style="opacity:.646;fill:#155293;stroke:none" id="rect3836"/>
</clipPath>
<clipPath id="clipPath6093" clipPathUnits="userSpaceOnUse">
<path style="fill:#fff" id="path6095" d="m 17,8 0,112 h 57.5 c 1.67528,0 3.9143,-0.56468 7,-3.6 8.87005,-8.72523 20.2405,-19.8518 27.499,-27.176 2.44056,-2.46261 3.00096,-4.47117 3.00096,-6.72404 v -74.5 z "/>
</clipPath>
<clipPath id="clipPath3889-0" clipPathUnits="userSpaceOnUse">
<path style="fill:url(#linearGradient3893-8);stroke:none" id="path3891-4" d="m 112,82.503 c 0,4.4653 -2.79749,6.40995 -5.27972,8.09363 -5.10854,3.46508 -14.9391,3.32536 -20.7203,3.40638 -0.081,5.78116 0.16586,15.5046 -3.29922,20.6131 -1.68367,2.48224 -5.29051,5.38687 -8.20078,5.38687 2.31803,0 4.74284,-1.33476 7.58402,-4.08481 9.14197,-8.84873 17.3671,-16.1354 25.6732,-25.2975 1.91895,-2.11675 4.24283,-3.64188 4.24283,-8.11768 z "/>
</clipPath>
<clipPath id="clipPath6093-7" clipPathUnits="userSpaceOnUse">
<path style="fill:#fff" id="path6095-4" d="m 17,8 .7828,110 57.5,0 c 1.67528,0 3.11942,0.18058 4.9,-1.6 8.79793,-8.79794 19.7576,-19.8518 27.0162,-27.176 2.44056,-2.46261 2.80096,-4.47117 2.80096,-6.72404 v -74.5 z "/>
</clipPath>
<clipPath id="clipPath5547-8" clipPathUnits="userSpaceOnUse">
<path style="opacity:.847;fill:url(#radialGradient5551-3)" id="path5549-8" d="m 17.2833,-121.5639 c -0.341931,0 -0.50307,0.24201 -0.50307,0.51574 v 112.398 c 0,0.847432 0.683494,1.54671 1.50921,1.5472 l 55.3377,.0322 c 0.0534,3.09e-05 1.00401,-0.00825 1.69786,5.15e-05 10.1606,-5.6683 25.5693,-23.6755 34.5695,-32.9606 1.48592,-1.70861 1.12069,-1.18754 1.46284,-2.9796 l .0001,-78.0368 c 0,-0.33287 -0.16422,-0.51574 -0.50307,-0.51574 z "/>
</clipPath>
<clipPath id="clipPath3889-6" clipPathUnits="userSpaceOnUse">
<path style="fill:url(#linearGradient3893);stroke:none" id="path3891-5" d="m 112,82.503 c 0,4.4653 -2.79749,6.40995 -5.27972,8.09363 -5.10854,3.46508 -14.9391,3.32536 -20.7203,3.40638 -0.081,5.78116 0.16586,15.5046 -3.29922,20.6131 -1.68367,2.48224 -5.29051,5.38687 -8.20078,5.38687 2.31803,0 4.74284,-1.33476 7.58402,-4.08481 9.14197,-8.84873 17.3671,-16.1354 25.6732,-25.2975 1.91895,-2.11675 4.24283,-3.64188 4.24283,-8.11768 z "/>
</clipPath>
<clipPath id="clipPath3748" clipPathUnits="userSpaceOnUse">
<rect width="213.328" x="-32.3325" y="-23.024727" rx="9.5983782" height="66.665001" ry="9.5983782" style="fill:#737373;stroke:none;fill-opacity:.899" id="rect3750"/>
</clipPath>
<clipPath id="clipPath3889" clipPathUnits="userSpaceOnUse">
<path style="fill:url(#linearGradient3893);stroke:none" id="path3891" d="m 112,82.503 c 0,4.4653 -2.79749,6.40995 -5.27972,8.09363 -5.10854,3.46508 -14.9391,3.32536 -20.7203,3.40638 -0.081,5.78116 0.16586,15.5046 -3.29922,20.6131 -1.68367,2.48224 -5.29051,5.38687 -8.20078,5.38687 2.31803,0 4.74284,-1.33476 7.58402,-4.08481 9.14197,-8.84873 17.3671,-16.1354 25.6732,-25.2975 1.91895,-2.11675 4.24283,-3.64188 4.24283,-8.11768 z "/>
</clipPath>
<clipPath id="clipPath5547" clipPathUnits="userSpaceOnUse">
<path style="opacity:.847;fill:url(#radialGradient5551)" id="path5549" d="m 17.2833,-121.5639 c -0.341931,0 -0.50307,0.24201 -0.50307,0.51574 v 112.398 c 0,0.847432 0.683494,1.54671 1.50921,1.5472 l 55.3377,.0322 c 0.0534,3.09e-05 1.00401,-0.00825 1.69786,5.15e-05 10.1606,-5.6683 25.5693,-23.6755 34.5695,-32.9606 1.48592,-1.70861 1.12069,-1.18754 1.46284,-2.9796 l .0001,-78.0368 c 0,-0.33287 -0.16422,-0.51574 -0.50307,-0.51574 z "/>
</clipPath>
<clipPath id="clipPath6093-76" clipPathUnits="userSpaceOnUse">
<path style="fill:#fff" id="path6095-8" d="m 17,8 0,112 h 57.5 c 1.67528,0 3.9143,-0.56468 7,-3.6 8.87005,-8.72523 20.2405,-19.8518 27.499,-27.176 2.44056,-2.46261 3.00096,-4.47117 3.00096,-6.72404 v -74.5 z "/>
</clipPath>
<clipPath id="clipPath3914-1" clipPathUnits="userSpaceOnUse">
<path style="fill:#fff" id="path3916-0" d="m 17,8 0,112 h 57.5 c 1.67528,0 3.9143,-0.56468 7,-3.6 8.87005,-8.72523 20.2405,-19.8518 27.499,-27.176 2.44056,-2.46261 3.00096,-4.47117 3.00096,-6.72404 v -74.5 z "/>
</clipPath>
<clipPath id="clipPath3889-6-8" clipPathUnits="userSpaceOnUse">
<path style="fill:url(#linearGradient3893-8);stroke:none" id="path3891-5-5" d="m 112,82.503 c 0,4.4653 -2.79749,6.40995 -5.27972,8.09363 -5.10854,3.46508 -14.9391,3.32536 -20.7203,3.40638 -0.081,5.78116 0.16586,15.5046 -3.29922,20.6131 -1.68367,2.48224 -5.29051,5.38687 -8.20078,5.38687 2.31803,0 4.74284,-1.33476 7.58402,-4.08481 9.14197,-8.84873 17.3671,-16.1354 25.6732,-25.2975 1.91895,-2.11675 4.24283,-3.64188 4.24283,-8.11768 z "/>
</clipPath>
<clipPath id="clipPath3834-7" clipPathUnits="userSpaceOnUse">
<rect width="116.00004" x="6" y="941.36218" rx="4" ry="4" height="31.5" style="opacity:.646;fill:#155293;stroke:none" id="rect3836-7"/>
</clipPath>
<linearGradient id="linearGradient5982-79">
<stop offset="0" style="stop-color:#fff" id="stop5984-0"/>
<stop offset="1" style="stop-color:#fff;stop-opacity:0" id="stop5986-3"/>
</linearGradient>
<linearGradient gradientTransform="matrix(1.0119858,0,0,1.0119858,-0.89554075,-0.9871566)" id="linearGradient3893" xlink:href="#linearGradient6131" y1="93.621468" y2="102.34375" x1="86.73793" x2="95.460213" gradientUnits="userSpaceOnUse"/>
<linearGradient id="linearGradient6131">
<stop offset="0" style="stop-color:#fcfcfc" id="stop6133"/>
<stop offset="0.52275378" style="stop-color:#f8f8f8" id="stop6135"/>
<stop offset="0.77457333" style="stop-color:#f0efef" id="stop6141"/>
<stop offset="0.90122044" style="stop-color:#e3e1e1" id="stop6139"/>
<stop offset="1" style="stop-color:#cecbcb" id="stop6137"/>
</linearGradient>
<linearGradient id="linearGradient5982">
<stop offset="0" style="stop-color:#fff" id="stop5984"/>
<stop offset="1" style="stop-color:#fff;stop-opacity:0" id="stop5986"/>
</linearGradient>
<linearGradient gradientTransform="matrix(1.0119858,0,0,1.0119858,-0.89554075,-0.9871566)" xlink:href="#linearGradient6131-3" id="linearGradient3893-8" y1="93.621468" x1="86.73793" y2="102.34375" gradientUnits="userSpaceOnUse" x2="95.460213"/>
<linearGradient id="linearGradient6131-3">
<stop offset="0" style="stop-color:#fcfcfc" id="stop6133-3"/>
<stop offset="0.52275378" style="stop-color:#f8f8f8" id="stop6135-7"/>
<stop offset="0.77457333" style="stop-color:#f0efef" id="stop6141-3"/>
<stop offset="0.90122044" style="stop-color:#e3e1e1" id="stop6139-2"/>
<stop offset="1" style="stop-color:#cecbcb" id="stop6137-6"/>
</linearGradient>
<radialGradient fx="63.793392" fy="47.274845" cx="64" cy="64.004021" gradientTransform="matrix(1.694551,-0.08694761,0.06928619,1.419178,-49.320129,-149.58182)" xlink:href="#linearGradient5982-79" id="radialGradient5551-3" r="47.5" gradientUnits="userSpaceOnUse"/>
<radialGradient fx="63.793392" fy="47.274845" cx="64" cy="64.004021" gradientTransform="matrix(1.694551,-0.08694761,0.06928619,1.419178,-49.320129,-149.58182)" r="47.5" id="radialGradient5551" xlink:href="#linearGradient5982" gradientUnits="userSpaceOnUse"/>
</defs>
<g style="stroke:none" id="g61">
<path style="opacity:.65;fill:#fff" id="path4213" d="m 8.633,18.8719 c -2.63991,-1.6e-05 -5.81981,3.16026 -5.80013,5.8001 l .6668,89.4275 h 121 l .6636,-82.8615 c 0.0292,-3.63765 -3.80407,-7.0357 -6.98407,-7.0357 h -17.869 l -55.1447,.003 v -1.3666 c 0,-1.83881 -3.9666,-3.9666 -3.9666,-3.9666 z "/>
<path id="rect2985" d="m 9.3332,21.3719 c -1.73276,-1e-05 -4,2.19218 -4,4 v 2 c 0,22.1431 0.6668,50.2333 0.6668,62.9938 v 23.7338 c 0,2.5513 2.05959,4.6027 4.62097,4.6027 h 106.758 c 2.56138,0 4.60034,-2.0515 4.62097,-4.6027 l .6636,-82.0612 c 0.0206,-2.5512 -2.72757,-5.4858 -5.28457,-5.336 h -17.0693 l -57.6441,.003 v -1.3666 c 0,-1.83881 -2.05707,-3.96659 -3.9666,-3.9666 z "/>
</g>
<g id="layer1" transform="matrix(2.2477969,0.84564829,-0.76514553,2.0338145,28.253926,-12.615339)">
<path style="fill:#ecf0f1;stroke:#7f8c8d;stroke-width:1.313" id="rect4090" d="m 7.0662,4.1944 0,40 34,0 .1438,-40.0021 -11.1438,.0021 z "/>
<g style="fill:#7f8c8d;fill-rule:evenodd;stroke:#003bc3;stroke-linecap:square;stroke-width:0" id="g75">
<rect width="23.362026" x="0" y="0" height="3.1810868" style="stroke-miterlimit:2.013" id="line2" transform="translate(12.3038,16.1417)"/>
<g style="stroke-miterlimit:2" id="g78">
<rect width="17.642252" x="15.178874" y="9.7795401" height="3.1810868" id="line"/>
<rect width="23.362026" x="0" y="0" height="3.1810868" id="line21" transform="translate(12.2953,22.5039)"/>
<rect width="23.362026" x="0" y="0" height="3.1810868" id="line22" transform="translate(12.3392,28.8661)"/>
<rect width="23.362026" x="0" y="0" height="3.1810868" id="line23" transform="translate(12.3307,35.2282)"/>
</g>
</g>
</g>
<rect width="122.664" x="2.6670001" y="66.650002" rx="4.5" height="56.051998" ry="4.5" style="fill:#3498db;fill-rule:evenodd;stroke:none;stroke-linecap:round;stroke-width:2" id="rect4210"/>
</svg>
