<svg width="128" version="1.1" xmlns="http://www.w3.org/2000/svg" viewBox="0 0 128 128" height="128" style="enable-background:new 0 0 128 128">
<path style="opacity:.6" id="path6594" d="m 23,9 .0408,112 61.1314,.0001 c 0.53,0 1.03908,-0.21107 1.41408,-0.58607 l 32.8282,-32.8276 c 0.375,-0.374997 0.5856,-0.884483 0.5856,-1.41448 v -77.172 Z " transform="matrix(1.0416667,0,0,1.0357143,-9.9583333,-3.3215342)"/>
<path style="fill:#fff" id="path34" d="m 16,8 v 112 h 61.172 c 0.53,0 1.039,-0.211 1.414,-0.586 l 32.828,-32.828 c 0.375,-0.375 0.586,-0.884 0.586,-1.414 v -77.172 h -96 z "/>
<path style="fill:#eff0f1" id="path59" d="m 18.9787,10 c -0.539276,0 -0.978723,0.440836 -0.978723,0.981818 v 106.036 c 0,0.54197 0.439447,0.98182 0.978723,0.98182 h 57.913 c 0.257404,0 0.509915,-0.10407 0.691957,-0.28767 l 32.1295,-32.2311 c 0.18303,-0.1836 0.28677,-0.435927 0.28677,-0.694145 v -73.8052 c 0,-0.540982 -0.43847,-0.981818 -0.97872,-0.981818 h -90.0426 z "/>
<path style="fill:#969696" id="path101" d="m 77.165,120.0035 c 0.676765,0.007 1.09744,-0.23153 1.473,-0.607 l 32.757,-32.7496 c 0.37408,-0.373999 0.60842,-0.775838 0.61,-1.465 l -34.84,.0001 Z "/>
<circle cx="-84.444962" cy="-55.75724" style="fill:#0a0" r="31.99345" id="circle3581_2_" transform="matrix(-0.96592582,0.25881906,-0.25881906,-0.96592582,0,0)"/>
<path style="fill:#fff;fill-rule:evenodd;stroke:none" id="rect3232" d="m 90.9986,12.0014 0,15 -15,0 0,10 15,0 0,15 10,0 0,-15 15,0 0,-10 -15,0 0,-15 -10,0 z "/>
</svg>
