<svg width="16" version="1.1" xmlns="http://www.w3.org/2000/svg" height="16">
<defs id="defs1">
<style type="text/css" id="current-color-scheme">
.ColorScheme-Text {
color:#000;
}
</style>
</defs>
<path style="fill:currentColor;fill-opacity:1;stroke:none" id="path821" d="m 7.4023,1.0098 c -0.303375,-0.0440234 -0.706386,0.0636191 -1.30078,0.246094 -1.58506,0.486599 -1.73353,0.703691 -1.05273,2.48047 -0.51229,0.35206 -0.892162,0.902359 -1.26172,1.30859 -1.7584,-0.605322 -2.07597,-0.440368 -2.53516,1.15039 -0.459182,1.59076 -0.188066,1.75118 1.64648,2.24609 0.024307,0.457089 0.13406,0.920839 0.332031,1.38867 -1.55877,1.09435 -1.77338,1.48062 -0.710938,2.70508 1.06245,1.22445 1.36663,1.00425 2.80664,-0.15625 0.637482,0.407416 1.42269,0.664026 2.18359,0.763672 0.321863,1.8817 0.649255,2.13833 2.25391,1.62891 1.60465,-0.509429 1.67823,-0.674789 1.21875,-2.51953 0.511537,-0.352426 0.894949,-0.9 1.26562,-1.30469 1.68502,0.585515 2.15591,0.526898 2.53516,-1.14844 0.379248,-1.67533 0.182629,-1.75216 -1.64844,-2.25 -0.02431,-0.457094 -0.136014,-0.91887 -0.333985,-1.38672 1.56004,-1.09607 1.78043,-1.48275 0.716797,-2.70898 -1.06363,-1.22623 -1.36916,-1 -2.80859,0.162109 -0.637478,-0.407414 -1.42661,-0.667931 -2.1875,-0.767578 -0.385711,-1.27045 -0.613517,-1.76452 -1.11914,-1.83789 z  m .5977,4.4902 a 2.5,2.5 0 0,1 2.5,2.5 2.5,2.5 0 0,1 -2.5,2.5 2.5,2.5 0 0,1 -2.5,-2.5 2.5,2.5 0 0,1 2.5,-2.5 z " class="ColorScheme-Text"/>
</svg>
