<svg width="16" version="1.1" xmlns="http://www.w3.org/2000/svg" height="16">
<defs id="defs1">
<style type="text/css" id="current-color-scheme">
.ColorScheme-Text {
color:#000;
}
</style>
</defs>
<path style="fill:currentColor;fill-opacity:1;stroke:none" id="path3341" d="m 2.5,2.0007 a 0.5,0.5 0 0,0 -0.347656,0.859375 l 5.1406,5.1406 -5.1406,5.1406 a 0.5,0.5 0 1,0 0.707031,0.707031 l 5.1406,-5.1406 5.1406,5.1406 a 0.5,0.5 0 1,0 0.707031,-0.707031 l -5.1406,-5.1406 5.1406,-5.1406 a 0.5,0.5 0 0,0 -0.363281,-0.859375 0.5,0.5 0 0,0 -0.34375,0.152344 l -5.1406,5.1406 -5.1406,-5.1406 a 0.5,0.5 0 0,0 -0.359375,-0.152344 Z " class="ColorScheme-Text"/>
</svg>
