<svg version="1.1" xmlns="http://www.w3.org/2000/svg" viewBox="0 0 16 16">
<defs id="defs1">
<style type="text/css" id="current-color-scheme">
.ColorScheme-Text {
color:#000;
}
</style>
</defs>
<path style="fill:currentColor;fill-opacity:1;stroke:none" id="path4" d="m 5.5,.9961 c -2.493,0 -4.5,2.01 -4.5,4.5 0,2.493 2.01,4.5 4.5,4.5 1.06364,0 2.02634,-0.381199 2.79492,-0.994141 l .6406,.6406 -3.2207,3.2207 -.7148,2.1367 2.1348,-.7129 3.2227,-3.2227 3.089,3.0921 .707,-.707 -3.089,-3.0921 2.4551,-2.4531 c 0.144327,-0.855673 -0.568155,-1.56816 -1.42383,-1.42383 l -2.4531,2.4551 -.6406,-.6406 c 0.615651,-0.76978 0.998047,-1.73349 0.998047,-2.79883 0,-2.493 -2.01,-4.5 -4.5,-4.5 z  m 0,1 c 1.939,0 3.5,1.561 3.5,3.5 0,1.939 -1.561,3.5 -3.5,3.5 -1.939,0 -3.5,-1.561 -3.5,-3.5 0,-1.939 1.561,-3.5 3.5,-3.5 z  m 8.9707,2.459 c -0.115574,-0.00486 -0.241499,0.00287 -0.375,0.025391 l -1.2812,1.2832 c 0.855673,-0.144328 1.56621,0.566202 1.42188,1.42188 l 1.2832,-1.2812 c 0.126287,-0.748713 -0.239806,-1.41519 -1.04883,-1.44922 z " class="ColorScheme-Text"/>
</svg>
