<svg width="48" version="1.0" xmlns="http://www.w3.org/2000/svg" height="48">
<g style="fill-rule:evenodd;stroke:none">
<path style="opacity:.7" id="path4144" d="m 11.664,.668 c -0.123932,-0.658654 2.7e-05,1.46797 2.7e-05,1.46797 0,0 8.26152,17.8948 10.0493,21.6597 1.47307,0.661204 4.47196,2.01155 4.47196,2.01155 0,0 2.36888,1.22219 2.5819,-0.335309 -1.88387,-5.02956 -10.7455,-22.3719 -17.1031,-24.804 l -0,-0 z "/>
<path style="opacity:.7" id="path4146" d="m 26.4888,29.4059 c 1.36888,2.31892 2.27897,6.44063 1.48976,7.39659 -1.24327,1.50585 -6.23672,3.36722 -2.87503,8.52481 3.37537,4.9098 8.66132,1.80863 9.89546,0.468028 1.49113,-1.49227 0.568787,-7.17193 -0.133723,-7.95649 -0.828841,-0.315017 -2.43794,-3.58163 -3.76305,-6.32681 -1.65956,-0.797095 -3.30877,-1.5497 -4.61342,-2.10613 z  m 3.2929,9.6176 c 0.136393,-0.01092 0.281822,-0.01144 0.417883,0 2.35838,0.198264 4.62193,3.53929 1.82823,5.99662 -3.23817,2.51873 -7.57084,-3.28206 -3.42663,-5.57873 0.369142,-0.25404 0.771336,-0.385116 1.18052,-0.417888 z "/>
<path style="opacity:.7" id="path4148" d="m 1,10.6521 c 2.96159,9.44229 23.7106,17.9621 23.6417,18.008 0,0 11.552,4.64439 12.2439,6.42495 0.78975,0.696653 6.46696,1.57114 7.94813,0.06895 1.3314,-1.24407 4.39359,-6.57127 -0.541158,-9.91009 -5.18241,-3.3233 -7.02614,1.68748 -8.52272,2.94189 -1.49669,1.25441 -9.30197,-1.33171 -8.89463,-4.09316 0,0 -25.8064,-13.4865 -25.8753,-13.4406 z  m 40.1544,16.4516 c 2.22362,0.128352 4.38956,2.78098 2.72669,4.95191 -2.90758,3.35549 -7.16091,-0.713922 -5.4283,-3.27202 0.686535,-1.26082 1.69087,-1.73823 2.70161,-1.67989 z "/>
<g style="fill:#a0a0a0" id="g10" transform="matrix(1.0697796,0,0,1.0697796,-1.6744288,-2.0742986)">
<path id="path4145" d="m 12.4688,2.5634 c -0.03004,0.045772 4.72024,10.0238 8.0625,17.0624 2.75396,1.23615 6.19548,2.7885 6.59375,2.96875 -2.11747,-4.44007 -8.71328,-17.7577 -14.6562,-20.0312 z"/>
<path id="path4143" d="m 26.4688,28.625 c 1.27959,2.16766 1.98773,5.45015 1.25,6.34375 -1.16217,1.40763 -5.82991,3.14758 -2.6875,7.96875 3.1552,4.58954 8.09636,1.69066 9.25,0.4375 1.39387,-1.39493 0.531686,-6.70412 -0.125,-7.4375 -0.774778,-0.294469 -2.13633,-2.77764 -3.375,-5.34375 -1.55131,-0.745102 -3.09295,-1.44862 -4.3125,-1.96875 z m 2.9355,8.4199 c 0.127496,-0.01021 0.263439,-0.01069 0.390625,0 2.20455,0.185332 4.32045,3.30843 1.70898,5.60547 -3.02695,2.35444 -7.07701,-3.06798 -3.20312,-5.21484 0.345064,-0.237469 0.721024,-0.359995 1.10352,-0.390625 z"/>
<path id="path4149" d="m 2.5,11.8962 c 2.76841,7.0787 22.164,15.4183 22.0996,15.4612 0,0 10.7985,4.34145 11.4453,6.00586 0.738236,0.651211 6.04513,1.46866 7.42969,0.06445 1.24456,-1.16292 4.107,-6.14264 -0.505859,-9.26367 -4.84437,-3.10653 -6.56784,1.57741 -7.9668,2.75 -1.39906,1.17259 -8.69522,-1.24485 -8.31445,-3.82617 0,0 -24.1231,-11.2346 -24.1875,-11.1917 z m 37.5352,14.0062 c 2.07858,0.119979 4.10324,2.59958 2.54883,4.62891 -2.71792,3.13662 -6.69382,-0.667354 -5.07422,-3.05859 0.641754,-1.17858 1.58058,-1.62485 2.52539,-1.57031 z"/>
</g>
</g>
</svg>
