<svg width="128" version="1.1" xmlns="http://www.w3.org/2000/svg" height="128">
<path style="mix-blend-mode:normal;font-family:sans-serif;text-decoration-style:solid;solid-color:#000000;opacity:.6;white-space:normal;color-interpolation-filters:linearRGB;text-transform:none;text-decoration-color:#000000;text-indent:0;text-align:start;text-decoration-line:none;color:#000;image-rendering:auto;color-rendering:auto;stroke-width:17.099;isolation:auto;color-interpolation:sRGB;solid-opacity:1;text-rendering:auto;fill:#fff;line-height:normal;stroke:none;shape-rendering:auto" id="path4151" d="m 52.3555,8.1582 c -25.8683,0 -47.0215,21.1532 -47.0215,47.0215 0,25.8684 21.1532,47.0215 47.0215,47.0215 9.49461,0 18.0481,-2.15763 25.4595,-7.04417 l 29.8816,29.6885 c 1.31404,1.30555 3.88381,1.16026 4.77643,0.26992 l 9.3388,-9.3151 c 1.47599,-1.47224 1.78328,-4.5926 0.28101,-7.16026 l -30.7335,-27.2748 c 5.05789,-7.49583 8.01758,-16.5106 8.01758,-26.1855 0,-25.8684 -21.1532,-47.0215 -47.0215,-47.0215 z  m 0,17.0977 c 16.6273,0 29.9238,13.2964 29.9238,29.9238 0,16.6273 -13.2965,29.9238 -29.9238,29.9238 -16.6273,0 -29.9238,-13.2964 -29.9238,-29.9238 0,-16.6273 13.2965,-29.9238 29.9238,-29.9238 z "/>
<g style="stroke:#919191">
<rect width="18.621414" x="-9.4346161" y="114.66753" rx="3.012285" ry="3.3435583" height="50.667603" style="fill:#919191;stroke-width:1.14" id="rect3755" transform="matrix(0.70710678,-0.70710678,0.70710678,0.70710678,0,0)"/>
<path style="fill:none;stroke-width:17.099" id="path2985" d="m 90.8279,52.1801 c 0,21.2478 -17.2247,38.4726 -38.4725,38.4726 -21.2478,0 -38.4725,-17.2247 -38.4725,-38.4726 0,-21.2478 17.2247,-38.4726 38.4725,-38.4726 21.2478,0 38.4725,17.2247 38.4725,38.4726 z "/>
</g>
</svg>
