<svg width="16" version="1.1" xmlns="http://www.w3.org/2000/svg" height="15.999995">
<defs id="defs7386"/>
<g style="color:#bebebe;stroke:none" id="layer12" transform="translate(-241.0002,-647)">
<path style="fill:#a0a0a0" id="path4157" d="m 243.933,648.0007 c -0.50766,0.0395 -0.94152,0.51729 -0.93263,1.02692 v 12.9453 c -0.008,0.5398 0.48663,1.03477 1.02589,1.02691 h 9.948 c 0.53926,0.008 1.03373,-0.48711 1.02589,-1.02691 v -9.95795 c -0.004,-0.26704 -0.1184,-0.53079 -0.31088,-0.71573 l -2.9844,-2.9874 c -0.18475,-0.19267 -0.44824,-0.30734 -0.71501,-0.31119 h -6.9636 c -0.0311,-0.00099 -0.0622,-0.00099 -0.0933,0 z "/>
<g style="fill:#fff">
<path id="path4155" d="m 245.021,650.0547 5.9688,0 0,1.9916 -5.9688,0 z "/>
<path id="path4153" d="m 245.021,654.0379 7.9584,0 0,1.9916 -7.9584,0 z "/>
<path id="path4387-5" d="m 245.021,658.021 7.9584,0 0,1.9916 -7.9584,0 z "/>
</g>
</g>
</svg>
