<svg width="128" version="1.0" xmlns="http://www.w3.org/2000/svg" height="128">
<g style="stroke:none">
<path style="fill:#8c8c8c" id="path4161" d="m 0,8 0,104.9063 128,0 L 128,8 Z"/>
<g style="fill:#77f1ff">
<path id="path4159" d="M 7.5938,15.7188 40,15.7188 40,40.5 7.5938,40.5 Z"/>
<path id="path4155" d="m 88,15.7188 32,0 0,24.7812 -32,0 z"/>
</g>
<g style="fill:#fff">
<path id="path4147" d="m 7.5938,80.5 32.4062,0 0,25.2188 -32.4062,0 z"/>
<path id="rect6427" d="m 88,80.5 32,0 0,25.2188 -32,0 z"/>
<path style="fill-rule:evenodd" id="path3006" d="m 37.4611,61.5729 c 0.04578,-1.2953 0.738777,-2.45122 1.9173,-3.3568 l 18.2193,-14.3283 v -0.0677 c 0.688183,-0.77009 1.62922,-1.41255 2.78821,-1.78127 1.91231,-0.6084 4.05385,-0.35555 5.75191,0.47917 0.266092,0.13074 0.54278,0.24842 0.784803,0.41146 0.149791,0.10087 0.29809,0.1605 0.437104,0.27344 0.07532,0.0593 0.190488,0.14359 0.261602,0.20573 l 18.8253,14.8074 c 1.65796,1.25187 2.23552,3.04784 1.6557,4.79692 -0.579823,1.74908 -2.21983,3.10916 -4.44391,3.56514 -2.22406,0.45598 -4.59717,0.002 -6.18901,-1.30209 l -8.1925,-2.4427 v 5.33519 0.20573 17.0627 h -12.7257 v -17.0627 -0.20573 -5.33519 l -8.1923,2.4427 c -1.82599,1.46882 -4.65486,1.89773 -7.05991,1.09637 -2.40501,-0.80136 -3.90951,-2.74615 -3.83792,-4.79952 z "/>
</g>
<path style="fill:#77f1ff" id="path4253" d="m 48,15.7188 32,0 0,24.7812 -32,0 z"/>
<path style="fill:#fff" id="path4257" d="m 48,80.5 32,0 0,25.2188 -32,0 z"/>
</g>
</svg>
