<svg version="1.1" xmlns="http://www.w3.org/2000/svg" viewBox="0 0 16 16">
<defs id="defs1">
<style type="text/css" id="current-color-scheme">
.ColorScheme-Text {
color:#000;
}
</style>
</defs>
<path style="fill:currentColor;fill-opacity:1;stroke:none" id="path4" d="m 2,2 v 12 h 12 v -11 -1 h -12 z  m 1,1 h 3 v 2 h -3 v -2 z  m 4,0 h 2 v 2 h -2 v -2 z  m 3,0 h 3 v 2 h -3 v -2 z  m -6.2812,3 h 2.5625 l 4,4 h -2.5625 l -4,-4 z  m 4,0 h 2.5625 l 2.7188,2.7168 v 1.2832 h -1.28125 l -4,-4 z  m 4.002,0 h 1.2793 v 1.2793 l -1.2793,-1.2793 z  m -8.7207,.7188 l 3.2812,3.2812 h -3.28125 v -3.28125 z  m 0,4.2812 h 3 v 2 h -3 v -2 z  m 4,0 h 2 v 2 h -2 v -2 z  m 3,0 h 3 v 2 h -3 v -2 z " class="ColorScheme-Text"/>
</svg>
