<svg width="48" version="1.0" xmlns="http://www.w3.org/2000/svg" height="48">
<defs id="defs1309"/>
<g style="stroke:none" id="layer1" transform="translate(0,-80)">
<rect width="43" x="2.5" y="93.25" rx="3.2953494" ry="3.2651515" height="21.5" style="fill:none" id="rect3834"/>
<path style="fill:#919191" id="path4161" d="M 5.3575581,93 C 3.4894783,93 2,94.47462 2,96.325581 L 2,111.67442 C 2,113.52538 3.4894783,115 5.3575581,115 l 37.2848839,0 C 44.510522,115 46,113.52538 46,111.67442 L 46,96.325581 C 46,94.47462 44.510522,93 42.642442,93 L 5.3575581,93 Z"/>
<g style="fill:#fff">
<path id="rect2941" d="m 8.843,96.1337 c 0.019759,-0.000942 0.044205,-0.000942 0.063953,0 h 9.35384 c 0.233539,-0.01731 0.45348,0.121607 0.575581,0.319767 0.122102,0.19816 0.122102,0.841456 0,1.03962 -0.122101,0.198162 -0.342042,0.305104 -0.575581,0.287791 h -3.03721 v 12.4382 h 3.03721 c 0.233539,-0.0173 0.45348,0.0896 0.575581,0.28779 0.122102,0.19816 0.122102,0.84145 0,1.03961 -0.122101,0.19821 -0.342042,0.33706 -0.575581,0.31977 h -9.35384 c -0.330871,-0.003 -0.59182,-0.47955 -0.607558,-0.80728 -0.015739,-0.32774 0.214543,-0.80552 0.543605,-0.83989 0.019759,-0.00096 0.044205,-0.00096 0.063953,0 h 3.03779 v -12.4382 h -3.03779 c -0.33087,-0.003246 -0.59182,-0.448161 -0.607557,-0.775895 -0.0157387,-0.327733 0.214543,-0.836867 0.543605,-0.871279 Z "/>
<rect width="0.38392857" x="-50.15023" y="51.042778" height="0" style="opacity:.578" id="rect1327"/>
<rect width="0.38392857" x="-63.636417" y="40.474144" height="0" style="opacity:.578" id="rect2482"/>
<rect width="0.38392857" x="42.46542" y="37.391701" height="0" style="opacity:.578" id="rect3286"/>
<rect width="0.38392857" x="28.979237" y="26.823063" height="0" style="opacity:.578" id="rect3288"/>
</g>
</g>
</svg>
