<svg xmlns="http://www.w3.org/2000/svg" viewBox="0 0 16 16">
<defs id="defs1">
<style type="text/css" id="current-color-scheme">
.ColorScheme-Text {
color:#000;
}
</style>
</defs>
<path style="fill:currentColor;fill-opacity:1;stroke:none" d="m 5,2 c -0.433,0.75 -0.65175,0.75 -0.21875,1.5 l 2.625,4.5 -1.5,2.2188 c -0.272,-0.138 -0.58125,-0.21875 -0.90625,-0.21875 -1.105,0 -2,0.895 -2,2 0,1.105 0.895,2 2,2 1.105,0 2,-0.895 2,-2 0,-0.405 -0.13675,-0.77875 -0.34375,-1.09375 -0.005,-0.008 0.005,-0.02425 0,-0.03125 l .4375,-.625 c 0.802,-0.025 0.91425,-0.59275 1.40625,-0.59375 0.011,0 0.02025,-0.001 0.03125,0 l .0312,.0625 .7812,1.1562 v 0.03125 c -0.206,0.315 -0.345703,0.68875 -0.345703,1.09375 0,1.105 0.895,2 2,2 1.105,0 2,-0.895 2,-2 0,-1.105 -0.895,-2 -2,-2 -0.325,0 -0.633297,0.08075 -0.904297,0.21875 l -1.5,-2.2188 c 0,0 2.635,-4.508 2.625,-4.5 0.433,-0.75 0.212297,-0.75 -0.220703,-1.5 l -3,5.125 -2.998,-5.125 z  m 2.998,6 h 0.0019531 c 0.276,0 0.5,0.224 0.5,0.5 0,0.254 -0.1925,0.468 -0.4375,0.5 h -0.125 c -0.245,-0.032 -0.439453,-0.246 -0.439453,-0.5 0,-0.276 0.224,-0.5 0.5,-0.5 z  m -3,3 c 0.552,0 1,0.448 1,1 0,0.552 -0.448,1 -1,1 -0.552,0 -1,-0.448 -1,-1 0,-0.552 0.448,-1 1,-1 z  m 6,0 c 0.552,0 1,0.448 1,1 0,0.552 -0.448,1 -1,1 -0.552,0 -1,-0.448 -1,-1 0,-0.552 0.448,-1 1,-1 z " class="ColorScheme-Text"/>
</svg>
