<svg width="128" version="1.0" xmlns="http://www.w3.org/2000/svg" height="128">
<g style="stroke:none">
<path style="fill:#8c8c8c" id="path4161" d="m 0,8 0,104.9063 128,0 L 128,8 Z"/>
<path style="fill:#77f1ff" id="path4159" d="M 7.5938,15.7188 40,15.7188 40,40.5 7.5938,40.5 Z"/>
<path style="fill:#fff" id="path4155" d="m 88,15.7188 32,0 0,24.7812 -32,0 z"/>
<path style="fill:#77f1ff" id="path4153" d="M 7.5938,48 40,48 l 0,25.00005 -32.4062,0 z"/>
<path style="fill:#fff" id="path4149" d="m 88,48 32,0 0,25 -32,0 z"/>
<path style="fill:#77f1ff" id="path4147" d="m 7.5938,80.5 32.4062,0 0,25.2188 -32.4062,0 z"/>
<g style="fill:#fff">
<path id="rect6427" d="m 88,80.5 32,0 0,25.2188 -32,0 z"/>
<path style="fill-rule:evenodd" id="path3006" d="m 62.9929,35.6412 c -1.2953,0.04578 -2.45122,0.738777 -3.3568,1.9173 l -14.3283,18.2193 h -0.0677 c -0.77009,0.688183 -1.41255,1.62922 -1.78127,2.78821 -0.6084,1.91231 -0.35555,4.05385 0.47917,5.75191 0.13074,0.266092 0.24842,0.54278 0.41146,0.784803 0.10087,0.149791 0.1605,0.29809 0.27344,0.437104 0.0593,0.07532 0.14359,0.190488 0.20573,0.261602 l 14.8074,18.8253 c 1.25187,1.65796 3.04784,2.23552 4.79692,1.6557 1.74908,-0.579823 3.10916,-2.21983 3.56514,-4.44391 0.45598,-2.22406 0.002,-4.59717 -1.30209,-6.18901 l -2.4427,-8.1925 h 5.33519 0.20573 17.0627 v -12.7257 h -17.0627 -0.20573 -5.33519 l 2.4427,-8.1923 c 1.46882,-1.82599 1.89773,-4.65486 1.09637,-7.05991 -0.80136,-2.40501 -2.74615,-3.90951 -4.79952,-3.83792 z "/>
</g>
</g>
</svg>
