<svg width="128" version="1.0" xmlns="http://www.w3.org/2000/svg" height="128">
<g style="stroke:none" id="g4">
<path style="fill:#8c8c8c" id="path4161" d="m 0,8 0,104.9063 128,0 L 128,8 Z"/>
<g style="fill:#fff" id="g7">
<path id="path4159" d="M 7.5938,15.7188 40,15.7188 40,40.5 7.5938,40.5 Z"/>
<path id="path4155" d="m 48,15.7188 72,0 0,89.9999 -72,0 z"/>
<path id="path4147" d="m 7.5938,81.9501 32.4062,0 0,23.7687 -32.4062,0 z"/>
</g>
<path style="fill:#3b7ad4;fill-rule:evenodd" id="path3006" d="m 70.6959,41.2018 c -1.29529,0.036 -2.45323,0.581213 -3.35881,1.50804 l -14.3263,14.3263 h -0.06855 c -0.770081,0.541204 -1.41351,1.28206 -1.78223,2.19351 -0.608398,1.5039 -0.354887,3.18873 0.479831,4.52412 0.130733,0.209262 0.248239,0.426593 0.411282,0.616924 0.100867,0.1178 0.161244,0.233412 0.274188,0.342737 0.05935,0.05923 0.143494,0.149715 0.205641,0.20564 l 14.8062,14.8062 c 1.25186,1.30387 3.04923,1.75839 4.7983,1.3024 1.74907,-0.455988 3.10847,-1.74684 3.56445,-3.49591 0.455977,-1.74906 0.0015,-3.61499 -1.3024,-4.86685 l -2.4429,-6.4435 h 6.53409 0.205642 17.9346 l -2.4429,6.4435 c -1.30384,1.25186 -1.75837,3.11779 -1.30239,4.86685 0.45597,1.74907 1.81537,3.03991 3.56444,3.49591 1.74907,0.455988 3.54645,0.0015 4.79831,-1.3024 l 14.8062,-14.8062 c 0.0621,-0.05593 0.14628,-0.14642 0.20564,-0.20564 0.11293,-0.109321 0.17333,-0.224943 0.27418,-0.342737 0.16304,-0.190331 0.28055,-0.407662 0.41128,-0.616924 0.83473,-1.33539 1.08823,-3.02022 0.47983,-4.52412 -0.36871,-0.911448 -1.01215,-1.65231 -1.78222,-2.19351 h -0.0685 l -14.3263,-14.3263 c -0.9056,-0.926825 -2.06353,-1.47204 -3.35883,-1.50804 -2.05336,-0.05631 -3.99694,1.12471 -4.7983,3.01607 -0.80136,1.89139 -0.37205,4.11632 1.09675,5.55232 l 2.4429,6.4435 h -17.9346 -0.205642 -6.53409 l 2.4429,-6.4435 c 1.4688,-1.436 1.89811,-3.66093 1.09675,-5.55232 -0.801355,-1.89136 -2.74494,-3.07238 -4.7983,-3.01607 z "/>
<path style="fill:#fff" id="path4199" d="M 7.5938,48.2188 40,48.2188 40,73 7.5938,73 Z"/>
</g>
</svg>
