<svg width="48" version="1.0" xmlns="http://www.w3.org/2000/svg" height="48" xmlns:xlink="http://www.w3.org/1999/xlink">
<defs id="defs18"/>
<g style="fill-rule:evenodd;stroke:none">
<g id="g6">
<path style="fill:#8c7300;color:#000" id="rect1975" d="m 8.8475,15.4 30.33,0 6.117,21.107 0,9.4925 -42.589,5e-4 0,-9.493 6.142,-21.107 z"/>
<path style="fill:#c4a800" id="path2524" d="m 2.7055,36.507 42.589,0 L 45.2945,2 24,2 2.7055,2 z"/>
</g>
<g id="g11" transform="translate(-2.3441865,0.4)">
<path style="fill:#fff" id="path2906" d="m 11.1134,27.6008 c 4.80979,-0.519818 7.50336,-2.28955 9.11379,-4.52991 -2.76096,-3.54673 -2.03349,-2.99186 0.291261,-0.73736 1.0938,1.06074 2.83421,2.03375 4.03146,-1.26878 0.919118,-2.53532 1.99783,-3.23822 1.99783,-3.23822 -1.63927,-0.663646 -4.69167,-2.96033 0.233452,-0.938615 1.56147,-2.36675 3.73995,-3.96792 5.73878,-5.79201 -4.46892,-0.006 -3.1999,-1.89596 0.7307,-0.544966 1.87077,-3.47301 6.41338,-3.4177 11.536,-2.59645 -3.76127,-1.88133 -7.94991,-4.33887 -9.16347,-2.78526 l -.1763,-1.1612 c -3.4751,-0.782848 -11.4558,-1.307 -11.5375,-0.519371 -0.06277,0.605059 -0.397369,1.85092 -0.447894,3.17418 -0.25064,-0.956028 -0.400623,-1.94177 -0.442907,-2.9593 -2.30326,0.15418 -6.23978,2.29565 -6.25426,3.30644 -0.0084,0.584701 0.530655,5.3673 1.17816,7.71519 -1.20126,-2.31023 -1.71718,-4.66732 -2.26453,-7.02226 -0.693665,0.72994 -4.06421,0.699894 -1.72354,10.6644 -0.96192,-1.54836 -1.12075,-3.27666 -1.60302,-4.93249 -1.7434,2.83364 -2.85077,7.83819 -1.70114,14.0379"/>
<path style="stroke:#000;stroke-width:.2" id="path1873" d="m 28.4139,7.8771 c -9.92245,6.24683 -17.6455,14.3477 -20.5122,26.4715 l .3394,.1844 c 0,0 0.443477,-0.93261 0.836452,-1.21325 0.392975,-0.280637 1.6502,-0.802076 1.6502,-0.802076 0,0 0.39192,-4.4661 2.17511,-8.03951 1.78319,-3.5734 4.6582,-6.33533 5.23672,-6.98188 0.578522,-0.646554 1.78515,-2.06324 1.78515,-2.06324"/>
</g>
</g>
</svg>
