<svg width="48" version="1.0" xmlns="http://www.w3.org/2000/svg" height="48">
<g style="fill-rule:evenodd">
<g id="g6">
<path style="fill:#8c7300;color:#000" id="rect1975" d="M 45,35 V 46 H 3 V 35 Z"/>
<path style="fill:#c4a800" id="path2524" d="M 3,37 H 45 V 2 H 3 Z"/>
</g>
<path style="fill:#fff;stroke-width:1.061" id="path2906" d="m 8.8266,28.833 c 4.80981,-0.526837 7.50338,-2.32046 9.11381,-4.59107 -2.76097,-3.59461 -2.0335,-3.03226 0.291262,-0.747314 1.0938,1.07506 2.83422,2.06121 4.03147,-1.28591 0.919121,-2.56955 1.99784,-3.28194 1.99784,-3.28194 -1.63928,-0.672606 -4.69169,-3.00029 0.233453,-0.951288 1.56147,-2.3987 3.73996,-4.02149 5.73879,-5.87021 -4.46893,-0.0061 -3.20001,-1.92156 0.730703,-0.552323 1.87077,-3.5199 6.4134,-3.46384 11.536,-2.6315 -3.76128,-1.90673 -7.94994,-4.39745 -9.16349,-2.82287 l -.1763,-1.1768 c -3.47511,-0.793417 -11.4559,-1.32465 -11.5376,-0.526383 -0.06277,0.613227 -0.39737,1.87591 -0.447895,3.21704 -0.250641,-0.968936 -0.400625,-1.96798 -0.442909,-2.99925 -2.30327,0.156262 -6.2398,2.32664 -6.25428,3.35108 -0.0084,0.592595 0.530657,5.43977 1.17816,7.81935 -1.20127,-2.34143 -1.71718,-4.73034 -2.26454,-7.11707 -0.693667,0.739795 -4.06422,0.709343 -1.72354,10.8084 -0.961924,-1.56927 -1.12076,-3.32089 -1.60303,-4.99909 -1.7434,2.87189 -2.85078,7.94401 -1.70114,14.2274"/>
</g>
<path style="stroke-width:1.061" id="path878-3" d="m 26.0177,8.747 c -8.97887,5.92908 -17.597,13.9502 -20.5177,26.9776 l .4988,.2754 c 0.189003,-0.528927 0.538141,-0.973493 0.849482,-1.28806 0.464689,-0.4695 1.13424,-0.582439 1.6868,-0.826218 0.360621,-3.21109 1.02523,-5.65402 2.22672,-8.14733 1.81032,-3.5183 3.85562,-5.85626 6.95133,-9.1716 2.75266,-2.92184 5.51709,-5.15924 8.43589,-7.61172 z "/>
</svg>
