<svg width="48" version="1.0" xmlns="http://www.w3.org/2000/svg" height="48">
<g style="font-family:'Bitstream Vera Sans Mono';stroke:none" id="g4">
<path style="font-weight:bold" id="path4173" d="m 43.579,21.0258 c 4.1e-05,5.22228 0,18.2368 0,18.2368 l 1.421,-1.9997 2.9997,2.9997 v 4.42084 l -17.6842,.0002 -2.9995,-2.9997 1.9998,-2.4213 c -1.31766,2.19731 -3.37733,4.12984 -4.68182,4.84636 -2.02514,1.11236 -4.53443,1.67995 -7.2452,1.67995 -4.01691,0 -6.57665,-1.03097 -8.77278,-3.00225 -3.48181,-3.12532 -5.01634,-5.91173 -5.01633,-9.66167 -3.3e-06,-4.11801 1.54022,-7.20079 4.62066,-9.24831 3.10508,-2.0475 7.67643,-3.40353 13.9112,-3.40355 h 7.18421 v -3.16816 c 0,-3.86842 -3.4213,-4.67394 -7.84236,-4.67394 -4.42105,0 -7.8346,1.76983 -9.24368,6.63142 l -4.0195,.0002 -2.9993,-2.9997 c 3.79348,-7.37957 11.892,-9.58124 16.9446,-9.65295 7.02338,3.32e-05 12.1616,1.21934 15.4145,3.65792 3.27755,2.43864 6.00886,5.53559 6.0089,10.7579 z  m -14.2633,11.0526 0,-6.0844 -3.9167,-.0998 c -2.43894,-0.06215 -4.22762,0.63892 -5.53371,1.88121 -1.30613,1.24233 -1.95918,3.02528 -1.95916,5.34884 -1.6e-05,2.32359 0.16835,3.06054 1.10482,4.21082 0.961079,1.15029 1.71516,1.72544 3.66202,1.72544 2.02075,0 3.64722,-1.1212 4.87942,-2.36351 1.23215,-1.24229 1.76322,-2.57105 1.76326,-4.61859 z "/>
<path style="fill:#d2d2d2;font-weight:bold" id="path3815" d="m 40.5789,19.0263 c 4.1e-5,5.22228 0,18.2368 0,18.2368 l 4.4211,-2e-4 0,4.421 -17.684,0 -2e-4,-4.4208 c -1.72508,1.93249 -3.56225,3.22574 -5.68157,4.14597 -2.11937,0.920231 -4.53443,1.38034 -7.24521,1.38034 -4.01691,0 -6.00441,-1.00075 -8.17303,-3.00225 C 4.072,37.76265 3,34.87542 3.00001,31.12548 c -3.3e-6,-4.11801 1.54022,-7.20079 4.62066,-9.24831 3.10508,-2.0475 6.27608,-3.40353 12.5109,-3.40355 l 7.18421,0 0,-3.86842 c 0,-3.86842 -4.42105,-4.97368 -8.84211,-4.97368 -4.42105,0 -7.8346,1.76983 -9.24368,6.63142 l -4.019,0 0,-8.842 c 4.8177,-1.60009 9.89201,-2.13876 14.9446,-2.21047 7.02338,3.32e-5 12.1616,1.21934 15.4145,3.65792 3.27755,2.43864 5.00876,4.93559 5.0088,10.1579 z m -13.2632,11.0526 0,-7.1842 -4.9164,0 c -2.43973,2.2e-5 -4.22762,0.63892 -5.53371,1.88121 -1.30612,1.24233 -1.95918,3.02528 -1.95916,5.34884 -1.6e-5,2.32359 0.46821,4.06053 1.40468,5.21081 0.961079,1.15029 2.41505,1.72544 4.36191,1.72544 2.02075,0 3.64722,-0.621158 4.87942,-1.86347 1.23215,-1.24229 1.76322,-3.07109 1.76325,-5.11862 z"/>
</g>
</svg>
