<svg width="128" version="1.0" xmlns="http://www.w3.org/2000/svg" height="128">
<path style="opacity:.6;fill:#fff;stroke:none;stroke-width:.878" id="path4152" d="m 36.9156,45.29 56.1667,-2.4 1.9996,2.4 .5017,22.842 -3.4855,-.0003 -1.9996,-2.4 c 0,0 1.32818,-8.7421 0.22522,-9.7824 -2.2086,-2.0806 -4.70927,-3.1216 -11.7856,-3.1216 h -3.59022 l .2888,53.1492 c 0,4.99202 1.81688,7.0967 3.26878,8.29286 0.72461,0.59809 7.52332,-0.53016 7.52332,-0.53016 l 1.9996,2.4 .0002,2.9574 -42.8681,-.0002 -1.9996,-2.4 c 0,0 10.481,-1.38037 11.7685,-2.75145 1.28478,-1.37249 3.02278,-2.43052 3.02278,-7.96843 l .2888,-53.1492 h -5.01963 c -6.78087,0 -5.80914,-0.240552 -8.26373,1.81748 -2.45459,2.06085 -3.82165,6.55382 -5.05697,13.4868 l -3.4846,-.0003 -1.9996,-2.4 z "/>
<circle cx="25.732271" cy="-72.618324" style="fill:#ff1700" r="10.571689" id="circle76" transform="matrix(-0.86847625,0.49573077,-0.49573077,-0.86847625,0,0)"/>
<path style="fill:#a600ff" id="path78" d="m 126.2003,79.1128 c -1.53887,5.63208 -7.35684,8.953 -12.9904,7.41501 -5.62726,-1.53756 -8.94819,-7.35552 -7.41086,-12.9867 1.53887,-5.63208 7.35684,-8.95301 12.9872,-7.4172 5.6323,1.5428 8.95081,7.36011 7.41414,12.9889 z"/>
<path style="fill:#ffa500" id="path80" d="m 23.9864,51.1898 c -1.54062,5.62901 -7.35617,8.95059 -12.9859,7.41238 -5.63361,-1.53799 -8.953,-7.35683 -7.41413,-12.9889 1.53821,-5.62967 7.35464,-8.94972 12.9874,-7.41326 5.63054,1.53974 8.95147,7.35771 7.4126,12.9898 z"/>
<path style="fill:#6400ff" id="path82" d="m 118.8203,59.1262 c -5.64706,1.48848 -11.4286,-1.88888 -12.9132,-7.53617 -1.483,-5.64816 1.89283,-11.4288 7.54033,-12.9094 5.64949,-1.48783 11.4317,1.88713 12.9119,7.54098 1.48454,5.64728 -1.89151,11.424 -7.53902,12.9046 z"/>
<path style="fill:#ffdc00" id="path84" d="m 35.0538,32.2345 c -4.14841,4.10689 -10.8432,4.07661 -14.9512,-0.0773 -4.10929,-4.14906 -4.07638,-10.8393 0.0681,-14.9459 4.15191,-4.11498 10.8463,-4.07835 14.9556,0.0707 4.11083,4.14819 4.07727,10.8408 -0.0725,14.9525 z"/>
<path style="fill:#0012ff" id="path86" d="m 109.9776,32.5982 c -4.15234,4.1071 -10.8423,4.07813 -14.9534,-0.074 -4.10754,-4.146 -4.07419,-10.8425 0.0788,-14.952 4.14688,-4.10601 10.8377,-4.07551 14.9446,0.0729 4.11652,4.15104 4.08317,10.8476 -0.0701,14.9532 z"/>
<circle cx="-39.156925" cy="-35.158707" style="fill:#00ca0b" r="10.573452" id="circle88" transform="matrix(-0.86847625,0.49573077,-0.49573077,-0.86847625,0,0)"/>
<path style="fill:#0bf" id="path90" d="m 89.0596,14.0457 c -1.53975,5.63055 -7.35859,8.94994 -12.9889,7.41414 -5.63054,-1.53974 -8.95147,-7.35771 -7.41413,-12.9889 1.53974,-5.63055 7.3577,-8.95147 12.9889,-7.41414 5.62901,1.54062 8.95147,7.35771 7.41414,12.9889 z"/>
<g style="fill:none" id="g13">
<path style="opacity:.7" id="path92" d="m 118.787,66.1254 c -5.63033,-1.5358 -11.4483,1.78512 -12.9872,7.4172 -1.53733,5.6312 1.78359,11.4492 7.41085,12.9867 5.63361,1.53799 11.4516,-1.78293 12.9904,-7.41501 1.5358,-5.63033 -1.78271,-11.4476 -7.41414,-12.9889 z"/>
<path style="opacity:.7" id="path94" d="m 113.4474,38.6806 c -5.64816,1.48301 -9.02333,7.26128 -7.54033,12.9094 1.48609,5.64641 7.26611,9.02465 12.9132,7.53617 5.64663,-1.48214 9.02356,-7.25735 7.53902,-12.9046 -1.48016,-5.65385 -7.26237,-9.02881 -12.9119,-7.54098 z"/>
<circle cx="-76.618317" cy="-72.618324" style="opacity:.7" r="10.571689" id="circle96" transform="matrix(-0.86847625,0.49573077,-0.49573077,-0.86847625,0,0)"/>
<path style="opacity:.7" id="path98" d="m 68.6566,8.4709 c -1.53734,5.6312 1.78359,11.4492 7.41413,12.9889 5.63033,1.5358 11.4492,-1.78359 12.9889,-7.41414 C 90.59849,8.41358 87.2745,2.59736 81.64549,1.05676 76.01428,-0.48058 70.19629,2.84035 68.65659,8.4709 Z"/>
<circle cx="-39.1534" cy="-35.156944" style="opacity:.7" r="10.571689" id="circle100" transform="matrix(-0.86847625,0.49573077,-0.49573077,-0.86847625,0,0)"/>
</g>
<path style="fill:#646464;stroke:none;stroke-width:.878" id="path2923" d="m 34.916,42.89 58.1663,0 0.5017,22.842 -3.4855,-3e-4 c -1.00981,-6.67209 0.431565,-10.1018 -1.77436,-12.1824 -2.2086,-2.0806 -4.70927,-3.1216 -11.7856,-3.1216 l -3.59022,0 0.2888,53.1492 c 0,4.99202 1.81688,7.0967 3.26878,8.29286 1.44922,1.19617 4.62442,1.49462 9.5229,1.86984 l 2e-4,2.9574 -42.8681,-2e-4 1e-4,-2.9568 c 5.22469,-0.41612 8.48132,-0.82357 9.76877,-2.19465 1.28478,-1.37249 3.02278,-2.43052 3.02278,-7.96843 l 0.2888,-53.1492 -5.01963,0 c -6.78087,0 -5.80914,-0.240552 -8.26373,1.81748 -2.45459,2.06085 -3.82165,6.55382 -5.05697,13.4868 l -3.4846,-3e-4 z"/>
</svg>
