<svg width="48" version="1.0" xmlns="http://www.w3.org/2000/svg" height="48">
<g style="stroke:none" id="g4">
<path style="font-family:'Bitstream Vera Serif';font-weight:bold;font-size:57.68214035px" id="path4164" d="m 23.3666,29.7369 0,-3.3193 -6.617,.0473 c -5.04022,-0.110869 -7.57227,2.58651 -7.82783,7.83416 -0.013901,4.95969 1.8644,6.9703 6.27867,7.27709 4.86576,-0.05496 8.27103,-9.42439 8.16621,-11.8392 m 5.3596,-7.3168 0,19.1642 1.2872,-3.0003 3.0004,3.0003 0,3.5 -9.6472,-.0172 -3.0004,-3.0003 2.4997,-1.8087 c -2.23439,4.59553 -5.3035,5.97025 -8.74496,5.99281 -6.83864,0.044821 -13.3161,-5.86796 -13.72,-12.952 0.049798,-8.47732 7.85317,-11.149 14.7416,-11.5087 l 7.2236,-.0473 1.0004,-1.9157 c 0.03137,-5.51847 -3.24429,-8.27537 -8.03932,-8.5762 -4.13706,-0.0605 -6.16706,2.75636 -6.96742,7.00001 h -3.21573 l -3.0004,-3.0003 c 1.77346,-4.47189 5.86425,-8.72019 7.59736,-9.17815 1.75235,-0.480784 3.45656,-0.721194 5.11265,-0.721232 8.56414,-0.097741 13.4456,8.36347 13.8724,17.0688"/>
<path style="font-family:'Arial Black';text-align:start;word-spacing:0;line-height:125%;font-weight:bold;letter-spacing:0" id="path4165" d="m 31.23,12.9251 6.2575,.0042 c 0.241665,0.753092 0.579996,0.692039 1.01499,1.01629 0.434997,0.324249 1.01499,0.486373 1.73998,0.486373 0.792659,0 1.40649,2.01675 1.84148,1.65067 0.338331,-0.27195 0.507496,-0.611889 0.507496,-1.01981 0,-0.460224 -0.222332,-0.815852 -0.666995,-1.06688 -0.318997,-0.177813 -1.16483,-0.397465 -2.53748,-0.658957 -2.04932,-0.387006 -3.47514,-0.742634 -4.27747,-1.06688 -0.792659,-0.334674 -1.46449,-0.894613 -2.01548,-1.67909 -0.541329,-0.784472 -1.21202,-3.87822 -1.21202,-4.88234 0,-1.09826 0.694858,-2.04486 1.28452,-2.83979 0.589662,-0.79493 1.40166,-1.3859 2.43599,-1.77291 1.03433,-0.397466 2.42148,-0.596199 4.16147,-0.596199 1.83665,0 3.18998,0.151665 4.05997,0.454995 0.879661,0.30333 3.15474,3.50441 3.15474,3.50441 l .4992,2.6962 -5.5969,.5962 c -0.144999,-0.533441 -0.386663,-0.925677 -0.724994,-1.17671 -0.463997,-0.334708 -1.02466,-0.502062 -1.68198,-0.502062 -0.666992,0 -1.15516,0.130746 -1.46449,0.392237 -0.299665,0.251031 -0.449497,0.559591 -0.449497,0.925678 0,0.407926 0.193332,0.716485 0.579995,0.925678 0.386664,0.209193 1.22766,0.397466 2.52298,0.56482 1.96232,0.240572 3.42197,-0.024433 4.37897,0.404416 0.956991,0.428845 1.68682,1.04074 2.18948,1.83567 0.512329,0.794929 0.768494,2.26817 0.768494,3.22 0,0.962286 -0.270665,1.89842 -0.811994,2.80842 -0.531663,0.909992 -1.37749,1.63694 -2.53748,2.18083 -1.15032,0.533442 -2.72115,0.800162 -4.71247,0.800162 -2.81298,0 -5.04861,-1.16047 -6.16188,-2.13571 -1.07581,-0.942424 -2.20782,-3.46957 -2.54616,-5.06991 Z "/>
<g style="fill:#d2d2d2" id="g8">
<path style="font-family:'Bitstream Vera Serif';font-weight:bold;font-size:57.68214035px" id="path3137" d="m 20.36622,30.7363 0,-7.319 -6.617,0.0473 C 8.709,23.353731 6.17695,26.05111 5.92139,31.29876 c -0.013901,4.95969 2.86475,7.9702 7.27902,8.27699 4.86576,-0.05496 6.98058,-4.03133 7.16585,-8.83949 m 5.3596,-11.3165 0,19.1642 4.2876,0 0,3.5 -9.6472,-0.0172 0,-3.8091 C 18.15832,41.80765 14.9242,43.09882 11.1207,43.25058 4.31747,43.25918 0.4039,38.38278 0,31.29878 0.049798,22.82146 6.25423,20.14948 13.1427,19.78978 l 7.2236,-0.0473 0,-2.91562 c 0.03137,-5.51847 -3.24429,-8.27536 -8.03932,-8.5762 -4.13706,-0.060497 -6.16706,2.75635 -6.96742,7 l -3.21573,0 0,-7.38404 C 3.99246,6.927909 6.00808,5.92981 7.74119,5.47185 9.49354,4.991066 11.19775,4.750656 12.85384,4.750618 c 8.56414,-0.097741 12.4452,5.96383 12.872,14.6692"/>
<path style="font-family:'Arial Black';text-align:start;word-spacing:0;line-height:125%;font-weight:bold;letter-spacing:0" id="path4162" d="m 31.1295,12.426 5.8579,-.5962 q 0.362498,1.12964 1.015,1.61601 0.652495,0.486373 1.73998,0.486373 1.18899,0 1.84148,-0.549131 0.507495,-0.407926 0.507495,-1.01981 0,-0.690336 -0.666995,-1.06688 -0.478496,-0.266722 -2.53748,-0.658958 -3.07398,-0.580511 -4.27747,-1.06688 -1.18899,-0.502062 -2.01548,-1.67878 -0.811993,-1.17671 -0.811993,-2.68289 0,-1.64739 0.884493,-2.83979 0.884493,-1.19239 2.43599,-1.77291 1.55149,-0.596199 4.16147,-0.596199 2.75498,0 4.05997,0.454995 1.31949,0.454995 2.18948,1.41206 0.884493,0.957057 1.46449,2.58876 l -5.5969,.5962 q -0.217499,-0.800162 -0.724994,-1.17671 -0.695995,-0.502062 -1.68198,-0.502062 -1.00049,0 -1.46449,0.392237 -0.449497,0.376547 -0.449497,0.925678 0,0.611889 0.579996,0.925678 0.579995,0.313789 2.52298,0.56482 2.94348,0.360858 4.37897,1.00413 1.43549,0.643268 2.18948,1.83567 0.768495,1.19239 0.768495,2.62014 0,1.44343 -0.811995,2.80842 -0.797493,1.36499 -2.53748,2.18083 -1.72548,0.800162 -4.71247,0.800162 -4.21947,0 -6.01745,-1.30223 -1.78348,-1.30222 -2.29099,-3.70272 z "/>
</g>
</g>
</svg>
