<svg width="48" version="1.0" xmlns="http://www.w3.org/2000/svg" height="48">
<g style="stroke:none" id="g4">
<path style="color:#000" id="rect4205" d="m 8.9454,41.5473 32.6106,-.1001 c 0.565266,-0.0035 2.51995,2.05423 2.51995,2.61951 v 2.91291 c 0,0.565277 -0.455079,1.02036 -1.02036,1.02036 h -34.0104 c -0.565277,0 -3.03241,-2.53578 -3.02036,-3.1195 l .1002,-2.3128 c 0.02447,-0.564746 2.25509,-1.01689 2.82036,-1.02036 z "/>
<g style="font-family:'Bitstream Vera Serif'" id="g7">
<path style="font-weight:bold" id="path4203" d="m 31.7852,26.0841 0,-3.0705 -6.5637,.0431 c -4.99956,-0.101042 -7.51119,2.35726 -7.76469,7.13981 -0.01379,4.5201 1.84147,6.26373 6.22012,6.54333 4.82651,-0.05009 8.2932,-8.3388 8.10822,-10.6558 m 5.3163,10.7519 1.2525,-3.0003 3.0005,3.0003 0,3.1898 -9.5694,-.0156 -3.0005,-3.0003 2.0003,-1.4713 c -2.19013,3.23535 -4.39619,5.47532 -8.1708,5.55045 -3.37351,0.06715 -5.80199,-0.776217 -7.74085,-2.242 -3.25299,-2.45927 -5.64565,-6.41661 -5.6902,-9.6506 -0.106423,-7.72538 7.6037,-10.1611 14.4367,-10.489 l 7.1653,-.0431 1.0002,-1.6572 c 0.03112,-5.02937 -3.21812,-7.54192 -7.97448,-7.81609 -4.10369,-0.055138 -6.11731,2.51205 -6.91121,6.37959 h -3.18979 l -3.0005,-3.0003 c 1.75919,-5.72708 8.98091,-10.044 14.6938,-9.05329 5.48032,0.95038 11.8,9.12001 11.6985,15.8533"/>
<path style="fill:#d2d2d2;font-weight:bold" id="text4190" d="m 28.7847,26.6836 0,-6.6703 -6.5637,.0431 c -4.99956,-0.101042 -7.51119,2.35726 -7.76469,7.13981 -0.01379,4.5201 2.84165,7.26379 7.2203,7.54339 4.82651,-0.05009 6.92427,-3.67403 7.10804,-8.05604 m 5.3163,-10.3135 0,17.4656 4.2531,0 0,3.1898 -9.5694,-.0156 0,-3.4715 c -2.19013,3.23535 -5.39816,4.41208 -9.17098,4.55039 -6.74835,0.0079 -10.6304,-4.43636 -11.031,-10.8925 0.049399,-7.72596 6.20378,-10.1611 13.0367,-10.489 l 7.1653,-.0431 v -2.65721 c 0.031118,-5.02937 -3.21812,-7.54191 -7.97447,-7.81608 -4.10369,-0.0551383 -6.11731,2.51205 -6.91121,6.37958 h -3.18979 v -6.72958 c 1.83372,-0.855511 3.83308,-1.76515 5.55221,-2.18252 1.73821,-0.438171 3.42867,-0.657274 5.0714,-0.657308 8.49506,-0.089078 12.3448,5.43525 12.7682,13.3691"/>
</g>
<rect width="36.150951" x="5.9245238" y="41.346947" rx="1.0203552" ry="1.0203552" height="4.2530532" style="fill:#d2d2d2;color:#000" id="rect4342"/>
</g>
</svg>
