<svg width="128" version="1.0" xmlns="http://www.w3.org/2000/svg" height="128" xmlns:xlink="http://www.w3.org/1999/xlink">
<defs id="defs1309">
<linearGradient gradientTransform="matrix(0.75722601,0.75722601,-1.0350281,1.0350281,-109.33252,22.044296)" id="linearGradient3849" xlink:href="#linearGradient3770" y1="23.72045" y2="23.72045" x1="34.265" x2="45.4021" gradientUnits="userSpaceOnUse"/>
<linearGradient id="linearGradient3770">
<stop offset="0" style="stop-color:#ffcf55" id="stop3772"/>
<stop offset="0.30000001" style="stop-color:#ffcf55" id="stop3782"/>
<stop offset="0.30000001" style="stop-color:#ffbe19" id="stop3780"/>
<stop offset="0.65547752" style="stop-color:#ffbe19" id="stop3784"/>
<stop offset="0.65547752" style="stop-color:#dc9e00" id="stop3778"/>
<stop offset="1" style="stop-color:#dc9e00" id="stop3774"/>
</linearGradient>
</defs>
<circle cx="25.732271" cy="-72.618324" style="fill:#ff1700" r="10.571689" id="circle76" transform="matrix(-0.86847625,0.49573077,-0.49573077,-0.86847625,0,0)"/>
<path style="fill:#a600ff" id="path78" d="m 126.2003,79.1128 c -1.53887,5.63208 -7.35684,8.953 -12.9904,7.41501 -5.62726,-1.53756 -8.94819,-7.35552 -7.41086,-12.9867 1.53887,-5.63208 7.35684,-8.95301 12.9872,-7.4172 5.6323,1.5428 8.95081,7.36011 7.41414,12.9889 z"/>
<path style="fill:#ffa500" id="path80" d="m 23.9864,51.1898 c -1.54062,5.62901 -7.35617,8.95059 -12.9859,7.41238 -5.63361,-1.53799 -8.953,-7.35683 -7.41413,-12.9889 1.53821,-5.62967 7.35464,-8.94972 12.9874,-7.41326 5.63054,1.53974 8.95147,7.35771 7.4126,12.9898 z"/>
<path style="fill:#6400ff" id="path82" d="m 118.8203,59.1262 c -5.64706,1.48848 -11.4286,-1.88888 -12.9132,-7.53617 -1.483,-5.64816 1.89283,-11.4288 7.54033,-12.9094 5.64949,-1.48783 11.4317,1.88713 12.9119,7.54098 1.48454,5.64728 -1.89151,11.424 -7.53902,12.9046 z"/>
<path style="fill:#ffdc00" id="path84" d="m 35.0538,32.2345 c -4.14841,4.10689 -10.8432,4.07661 -14.9512,-0.0773 -4.10929,-4.14906 -4.07638,-10.8393 0.0681,-14.9459 4.15191,-4.11498 10.8463,-4.07835 14.9556,0.0707 4.11083,4.14819 4.07727,10.8408 -0.0725,14.9525 z"/>
<path style="fill:#0012ff" id="path86" d="m 109.9776,32.5982 c -4.15234,4.1071 -10.8423,4.07813 -14.9534,-0.074 -4.10754,-4.146 -4.07419,-10.8425 0.0788,-14.952 4.14688,-4.10601 10.8377,-4.07551 14.9446,0.0729 4.11652,4.15104 4.08317,10.8476 -0.0701,14.9532 z"/>
<circle cx="-39.156925" cy="-35.158707" style="fill:#00ca0b" r="10.573452" id="circle88" transform="matrix(-0.86847625,0.49573077,-0.49573077,-0.86847625,0,0)"/>
<path style="fill:#0bf" id="path90" d="m 89.0596,14.0457 c -1.53975,5.63055 -7.35859,8.94994 -12.9889,7.41414 -5.63054,-1.53974 -8.95147,-7.35771 -7.41413,-12.9889 1.53974,-5.63055 7.3577,-8.95147 12.9889,-7.41414 5.62901,1.54062 8.95147,7.35771 7.41414,12.9889 z"/>
<g style="fill:none" id="g18">
<path style="opacity:.7" id="path92" d="m 118.787,66.1254 c -5.63033,-1.5358 -11.4483,1.78512 -12.9872,7.4172 -1.53733,5.6312 1.78359,11.4492 7.41085,12.9867 5.63361,1.53799 11.4516,-1.78293 12.9904,-7.41501 1.5358,-5.63033 -1.78271,-11.4476 -7.41414,-12.9889 z"/>
<path style="opacity:.7" id="path94" d="m 113.4474,38.6806 c -5.64816,1.48301 -9.02333,7.26128 -7.54033,12.9094 1.48609,5.64641 7.26611,9.02465 12.9132,7.53617 5.64663,-1.48214 9.02356,-7.25735 7.53902,-12.9046 -1.48016,-5.65385 -7.26237,-9.02881 -12.9119,-7.54098 z"/>
<circle cx="34.993" cy="70.773003" style="opacity:.7" r="5.9920001" id="circle96" transform="matrix(-1.532253,0.874618,-0.874618,-1.532253,218.0578,102.92187)"/>
<path style="opacity:.7" id="path98" d="m 68.6566,8.4709 c -1.53734,5.6312 1.78359,11.4492 7.41413,12.9889 5.63033,1.5358 11.4492,-1.78359 12.9889,-7.41414 C 90.59849,8.41358 87.2745,2.59736 81.64549,1.05676 76.01428,-0.48058 70.19629,2.84035 68.65659,8.4709 Z"/>
<circle cx="56.228001" cy="92.005997" style="opacity:.7" r="5.9920001" id="circle100" transform="matrix(-1.532253,0.874618,-0.874618,-1.532253,218.0578,102.92187)"/>
</g>
<g style="stroke:none">
<g style="stroke-width:3.632;stroke-dashoffset:4;fill:#fff;stroke-linecap:round;stroke-linejoin:round">
<rect width="1" x="116" y="77" height="0" style="opacity:.578" id="rect1327"/>
<rect width="1" x="-141.37" y="33.53812" height="0" style="opacity:.578" id="rect2306"/>
</g>
<g style="fill:#96604b">
<path id="path3195" d="m 31.5372,77.1228 c 0.737369,15.0686 -4.54402,19.7186 -3.27118,25.3694 1.06879,4.74494 9.60071,4.26219 10.314,0.0334 C 39.479244,97.19449 38.226752,91.47 35.58937,78.9283 33.991,71.32752 28.24032,62.4039 28.24032,62.4039 c 0,0 2.96176,7.87056 3.29688,14.7189 z"/>
<path style="fill-rule:evenodd;stroke-linecap:square;stroke-miterlimit:10" id="path4331" d="m 58.4934,119.734 c -2e-6,3.98071 -11.9151,4.1077 -26.6131,4.1077 -14.698,0 -26.6131,-0.12699 -26.6131,-4.1077 1.6e-6,-3.98071 11.9151,-10.3077 26.6131,-10.3077 14.698,0 26.6131,6.32703 26.6131,10.3077 z"/>
</g>
</g>
<g id="g4269" transform="matrix(-1.5120408,3.3800442,-3.5352416,0.85407128,185.24635,356.05133)">
<path style="fill:url(#linearGradient3849);fill-rule:evenodd;stroke:none" id="path3797" d="m -94.8049,59.5657 -24.0209,23.8646 8.4354,8.4054 23.9552,-23.8901 z "/>
</g>
</svg>
