<svg width="48" version="1.0" xmlns="http://www.w3.org/2000/svg" height="48">
<g style="font-family:'Bitstream Vera Serif';stroke:none" id="g4">
<path style="font-weight:bold" id="path4175" d="m 47.9999,5.0001 -9.7699,29.6521 -1.2125,4.1141 c -0.09208,0.391826 -0.13811,0.723367 -0.13797,0.994622 -3e-05,0.482246 0.460028,1.26588 0.460028,1.26588 0,0 5.44837,-4.65773 6.83242,-6.65648 l 2.9999,3.0001 c -2.11615,3.13457 -4.29358,5.5307 -6.53232,7.1884 -2.2388,1.62756 -4.3089,2.44134 -6.21029,2.44134 -1.31875,-1e-06 -2.22959,-0.432099 -2.99014,-0.994621 -5.81858,-4.30362 -3.72633,-6.406 -0.354128,-9.63541 l .966,-3.3908 c -4.01755,5.15395 -7.31292,9.75597 -10.6864,11.8055 -2.42279,1.47686 -4.79958,2.21529 -7.13034,2.21529 -2.23878,-1e-06 -3.98944,-1.08546 -5.79628,-2.71261 -2.41105,-2.17127 -4.59102,-3.95566 -4.59102,-7.15051 0,-4.79225 2.6097,-11.2406 5.52317,-16.5452 2.94413,-5.33476 6.67031,-9.59957 11.1785,-12.7944 3.52681,-2.53172 6.85431,-3.7976 9.98247,-3.79765 1.87073,4.1e-05 2.6047,1.07483 3.83147,2.03927 0.696751,0.050952 -1.30733,-0.077898 1.59296,5.82924 l 9.0444,-9.8684 2.9999,3.0001 m -16.3768,2.3509 c -1.96279,3.64e-05 -4.04823,0.904238 -6.25631,2.7126 -3.12817,2.56194 -5.91896,6.35958 -8.37239,11.3929 -2.42279,5.03341 -4.06026,9.9938 -3.93448,13.6527 0.02897,0.842727 0.09659,2.63367 0.964308,3.88306 0.896321,1.29057 2.1389,1.7632 3.48832,1.76319 3.34281,4e-06 5.82401,-3.44358 9.74955,-8.29614 5.24421,-6.44995 9.0193,-12.0484 9.01933,-18.8299 -2.8e-05,-2.56187 -0.548247,-3.57159 -1.56025,-4.71695 -1.01209,-1.14528 -1.35002,-1.56155 -3.09807,-1.56158"/>
<path style="fill:#d2d2d2;font-weight:bold" id="text4201" d="m 45,2 -8.9704,30.6524 -1.0121,4.1141 c -0.09208,0.391826 -0.13811,0.723367 -0.13797,0.994622 -3e-5,0.482246 0.153309,0.904205 0.460028,1.26588 0.245302,0.271265 0.551991,0.406895 0.920043,0.406892 0.398654,3e-6 0.920001,-0.241117 1.56407,-0.723362 1.19602,-0.874057 2.79088,-2.68283 4.78435,-5.42558 l 1.564,1.0854 c -2.11615,3.13457 -4.29358,5.5307 -6.53232,7.1884 -2.2388,1.62756 -4.30891,2.44134 -6.2103,2.44134 -1.31875,-1e-6 -2.31547,-0.331541 -2.99014,-0.994621 -0.644055,-0.63294 -0.966068,-1.56728 -0.966039,-2.80302 -2.9e-5,-1.47686 0.33732,-3.42089 1.01205,-5.8321 l 0.966,-3.3908 c -4.01755,5.15395 -7.71306,8.75569 -11.0865,10.8052 -2.42279,1.47686 -4.79958,2.21529 -7.13034,2.21529 -2.23878,-1e-6 -4.17087,-0.904201 -5.79628,-2.71261 -1.62542,-1.83854 -2.43812,-4.35523 -2.43812,-7.55008 0,-4.79225 1.45674,-9.84071 4.37021,-15.1454 2.94413,-5.33476 6.67031,-9.59957 11.1785,-12.7945 3.52681,-2.53172 6.85431,-3.79761 9.98247,-3.79765 1.87073,4.1e-5 3.41946,0.482281 4.64623,1.44672 1.25735,0.964521 2.20807,2.56194 2.85213,4.79227 l 1.6564,-5.154 7.314,-1.085 m -16.3768,2.3509 c -1.96279,3.64e-5 -4.04823,0.904238 -6.25631,2.7126 -3.12817,2.56194 -5.91896,6.35958 -8.37239,11.3929 -2.42279,5.03341 -3.63418,9.58455 -3.63416,13.6534 -1.4e-5,2.04953 0.521347,3.67709 1.56407,4.88269 1.04271,1.17547 2.23875,1.7632 3.58817,1.76319 3.34281,4e-6 6.97697,-2.42627 10.9025,-7.27882 5.24421,-6.44995 7.86634,-13.0657 7.86637,-19.8472 -2.8e-5,-2.56187 -0.506053,-4.41548 -1.51806,-5.56084 -1.01209,-1.14528 -2.39215,-1.71795 -4.1402,-1.71798"/>
</g>
</svg>
