<svg width="48" version="1.0" xmlns="http://www.w3.org/2000/svg" height="48">
<g style="stroke:none;color:#000">
<rect width="41" x="3.5" y="4.6409993" rx="1.5045455" height="3.5" ry="1.7188447" id="rect3827"/>
<rect width="41" x="3.5" y="12.691003" rx="1.5045455" height="3.5" ry="1.7188447" id="rect3829"/>
<rect width="41" x="3.5" y="20.741003" rx="1.5045455" height="3.5" ry="1.7188447" id="rect3831"/>
<rect width="41" x="3.5" y="28.791002" rx="1.5045455" height="3.5" ry="1.7188447" id="rect3833"/>
<path id="path3835" d="m 9.7,34.641 -7.2,6.4 7.2,6.4 0,-4.9 28.6,0 0,4.9 7.2,-6.4 -7.2,-6.4 0,4.9 -28.6,0 z"/>
<g style="fill:#dcdcdc">
<rect width="41" x="3.5" y="2.05" rx="1.5045455" ry="1.7188447" height="3.5" id="rect4696"/>
<rect width="41" x="3.5" y="10.099999" rx="1.5045455" ry="1.7188447" height="3.5" id="rect4751"/>
<rect width="41" x="3.5" y="18.150002" rx="1.5045455" ry="1.7188447" height="3.5" id="rect4757"/>
<rect width="41" x="3.5" y="26.200001" rx="1.5045455" ry="1.7188447" height="3.5" id="rect4763"/>
<path id="rect4775" d="m 9.7,32.05 -7.2,6.4 7.2,6.4 0,-4.9 28.6,0 0,4.9 7.2,-6.4 -7.2,-6.4 0,4.9 -28.6,0 z"/>
</g>
</g>
</svg>
