<svg width="48" version="1.0" xmlns="http://www.w3.org/2000/svg" height="48">
<g style="stroke:none" id="g4">
<g style="font-family:'Bitstream Vera Serif'" id="g6">
<path style="font-weight:bold" id="path4160" d="m 23.3665,30.2369 0,-3.8193 -6.617,.0473 c -5.04022,-0.110869 -7.57227,2.58651 -7.82783,7.83416 -0.013901,4.95969 1.8649,6.97031 6.27916,7.2771 4.86576,-0.05496 8.37965,-9.39211 8.1657,-11.3392 m 5.3596,-7.8168 0,19.1642 1.2869,-3.0003 3.0008,3.0003 0,3.5 -9.6472,-.0172 -3.0006,-3.0001 2.001,-1.8089 c -0.95839,4.29202 -4.44248,5.84105 -8.24598,5.99281 -6.80323,0.0086 -13.3161,-5.86769 -13.72,-12.9517 0.049798,-8.47732 7.85365,-11.1493 14.7421,-11.509 l 7.2236,-.0473 .9999,-1.9157 c 0.03137,-5.51847 -3.24429,-8.27537 -8.03932,-8.5762 -4.13706,-0.0605 -6.16706,2.75636 -6.96742,7.00001 h -3.21573 l -3.0003,-3.0003 c 1.54794,-3.94568 5.86462,-8.7202 7.59773,-9.17816 1.75235,-0.480784 3.45656,-0.721194 5.11265,-0.721232 8.56414,-0.097741 13.4451,8.36347 13.8719,17.0688"/>
<path style="fill:#d2d2d2;font-weight:bold" id="path3137" d="m 20.36622,30.7363 0,-7.319 -6.617,0.0473 C 8.709,23.353731 6.17695,26.05111 5.92139,31.29876 c -0.013901,4.95969 2.86475,7.9702 7.27902,8.27699 4.86576,-0.05496 6.98058,-4.03133 7.16585,-8.83949 m 5.3596,-11.3165 0,19.1642 4.2876,0 0,3.5 -9.6475,-0.0169 3e-4,-3.8093 C 18.15832,41.80775 14.9242,43.09892 11.1207,43.25068 4.31747,43.25928 0.4039,38.38288 0,31.29888 0.049798,22.82156 6.25423,20.14958 13.1427,19.78988 l 7.2236,-0.0473 0,-2.91562 c 0.03137,-5.51847 -3.24429,-8.27536 -8.03932,-8.5762 -4.13706,-0.060497 -6.16706,2.75635 -6.96742,7 l -3.21573,0 0,-7.38404 C 3.99246,6.928009 6.00808,5.92991 7.74119,5.47195 9.49354,4.991166 11.19775,4.750756 12.85384,4.750718 c 8.56414,-0.097741 12.4452,5.96383 12.872,14.6692"/>
</g>
<g style="font-family:'Arial Black';text-align:start;word-spacing:0;line-height:125%;letter-spacing:0" id="g10">
<path style="font-weight:bold" id="path4167" d="m 31.347,34.8321 5.7578,1.0037 c 0.241665,0.753094 0.979955,0.691766 1.41495,1.01601 0.434996,0.32425 1.01499,1.08637 1.73998,1.08637 0.792661,0 1.40649,-0.183044 1.84148,-0.549132 0.33833,-0.27195 0.507496,-0.611889 0.507496,-1.01982 0,-0.460224 -0.222332,-0.815851 -0.666996,-1.06688 -0.318997,-0.177814 -1.16482,-0.397466 -2.53748,-0.658958 -2.04931,-0.387006 -3.47514,-0.742634 -4.27747,-1.06688 -0.792661,-0.334708 -1.46449,-0.894299 -2.01548,-1.67878 -0.54133,-0.784473 -1.21228,-3.27876 -1.21228,-4.28288 0,-1.09827 0.695117,-2.04486 1.28478,-2.83979 0.589662,-0.794933 1.40166,-1.38591 2.43599,-1.77291 1.03433,-0.397465 2.42148,-0.596199 4.16147,-0.596199 1.83666,0 3.18998,0.151665 4.05997,0.454995 0.879659,0.303329 3.14701,3.0875 3.14701,3.0875 l .6145,2.5616 -5.7044,.5484 c -0.144999,-0.533441 -0.386664,-0.925678 -0.724994,-1.17671 -0.463997,-0.334708 -1.02466,-0.502062 -1.68198,-0.502062 -0.666994,0 -1.15516,0.130745 -1.46449,0.392235 -0.299664,0.251031 -0.449496,0.559591 -0.449496,0.925679 0,0.407927 0.193332,0.716486 0.579996,0.925678 0.386663,0.209193 1.22765,0.397466 2.52298,0.564821 1.96232,0.240571 3.42198,-1.02521 4.37897,-0.5964 0.956993,0.428845 1.68682,1.04073 2.18949,1.83566 0.512329,0.794933 0.768493,3.668 0.768493,4.61982 0,0.962286 -0.270664,1.89843 -0.811993,2.80842 -0.531662,0.90999 -1.37749,1.63694 -2.53748,2.18084 -1.15032,0.533443 -2.72115,0.800163 -4.71247,0.800163 -2.81298,0 -5.11345,-0.973623 -6.01731,-1.90271 -1.02658,-1.05523 -2.1918,-3.07579 -2.59097,-5.10193 z "/>
<path style="fill:#d2d2d2;font-weight:bold" id="path4145" d="m 31.147,33.9323 5.8579,-.5962 q 0.362498,1.12964 1.015,1.61601 0.652494,0.486374 1.73998,0.486374 1.18899,0 1.84148,-0.549131 0.507495,-0.407926 0.507495,-1.01982 0,-0.690336 -0.666995,-1.06688 -0.478496,-0.266721 -2.53748,-0.658958 -3.07398,-0.580509 -4.27747,-1.06688 -1.18899,-0.502064 -2.01548,-1.67878 -0.811993,-1.17671 -0.811993,-2.68289 0,-1.64739 0.884493,-2.83979 0.884493,-1.1924 2.43599,-1.77291 1.55149,-0.596199 4.16147,-0.596199 2.75498,0 4.05997,0.454994 1.31949,0.454995 2.18948,1.41206 0.884493,0.957057 1.46449,2.58876 l -5.5969,.5962 q -0.217498,-0.800163 -0.724994,-1.17671 -0.695995,-0.502063 -1.68199,-0.502063 -1.00049,0 -1.46449,0.392236 -0.449496,0.376548 -0.449496,0.925678 0,0.611889 0.579996,0.925678 0.579995,0.313789 2.52298,0.564821 2.94348,0.360857 4.37897,1.00412 1.43549,0.643268 2.18949,1.83566 0.768493,1.19241 0.768493,2.62014 0,1.44343 -0.811993,2.80842 -0.797494,1.36499 -2.53748,2.18084 -1.72549,0.800163 -4.71247,0.800163 -4.21947,0 -6.01746,-1.30223 -1.78348,-1.30223 -2.29099,-3.70272 z "/>
</g>
</g>
</svg>
