<svg width="48" version="1.0" xmlns="http://www.w3.org/2000/svg" height="48">
<g style="stroke:none;color:#000">
<rect width="24.904533" x="11.547733" y="4.0606856" rx="1.4988" ry="1.4408036" height="3.4579284" id="rect3922"/>
<rect width="38.85107" x="4.5744648" y="12.903107" rx="1.4988" ry="1.6981834" height="3.4579284" id="rect3924"/>
<rect width="30.88162" x="8.5591898" y="21.745522" rx="1.4988" ry="1.4408036" height="3.4579284" id="rect3926"/>
<rect width="16.935081" x="15.532459" y="30.58794" rx="1.4988" ry="1.4408036" height="3.4579284" id="rect3928"/>
<path id="path3930" d="m 2.5821,40.1219 13.7473,0 0,-4.3529 7.1725,5.8349 -7.1725,5.8351 0,-4.3531 -13.7473,0"/>
<path id="path3932" d="m 45.4179,40.1219 -13.7473,0 0,-4.3529 -7.1725,5.8349 7.1725,5.8351 0,-4.3531 13.7473,0"/>
<g style="fill:#dcdcdc">
<rect width="25" x="11.5" y="1.3" rx="1.5045455" ry="1.4583334" height="3.5" id="rect4823"/>
<rect width="39" x="4.5" y="10.250001" rx="1.5045455" ry="1.7188447" height="3.5" id="rect4825"/>
<rect width="31" x="8.5" y="19.199999" rx="1.5045455" ry="1.4583334" height="3.5" id="rect4827"/>
<rect width="17" x="15.5" y="28.15" rx="1.5045455" ry="1.4583334" height="3.5" id="rect4831"/>
<path id="path4843" d="m 2.5,37.8 13.8,0 0,-4.4 7.2,5.9 -7.2,5.9 0,-4.4 -13.8,0"/>
<path id="path5245" d="m 45.5,37.8 -13.8,0 0,-4.4 -7.2,5.9 7.2,5.9 0,-4.4 13.8,0"/>
</g>
</g>
</svg>
