<svg width="48" version="1.0" xmlns="http://www.w3.org/2000/svg" height="48">
<g style="stroke:none" id="g4">
<path style="color:#000" id="rect4163" d="m 25.4062,5.2497 c -1.80249,3.74e-05 -3.6572,0.241872 -5.56445,0.722656 -1.88631,0.457961 -6.17317,6.09671 -8.0918,9.27764 l 2.9995,3.002 h 3.5 c 0.871109,-4.24365 3.08121,-7.0605 7.58398,-7 5.21892,0.300834 8.78414,3.0577 8.75,8.57617 l -.9995,1.914 -7.8633,.0488 c -5.65021,0.271112 -12.8725,1.8573 -15.1285,6.25 l -5.4731,.1934 c -0.620044,0.016 -1.83384,0.504893 -1.91992,1.11914 l -.1992,1.4277 c -0.086084,0.614247 2.4984,3.91912 3.11865,3.91912 h 3.92344 c -0.0045,0.135672 -0.01204,0.261121 0.008,0.398437 0.461772,3.1636 2.09047,5.91091 4.48924,7.95223 2.92786,2.49158 5.68047,3.28737 9.38179,3.20097 3.96127,-0.09247 7.32361,-2.48254 7.895,-3.55292 l 2.7674,2.3674 10.5,.0176 v -3.5 l -2.9995,-3 -1.6665,3 v -6.88364 h 5.46289 c 0.620251,0 1.11914,-0.498891 1.11914,-1.11914 v -2.72787 c 0,-0.620252 -2.49861,-3.63498 -3.11865,-3.61898 l -3.4634,1.1152 v -5.92969 c -0.464564,-8.70539 -5.69002,-17.268 -15.0112,-17.1702 z  m 9.1772,21.1684 0,2.082 -13.875,.3574 c 1.40504,-1.63978 3.61295,-2.4544 6.67188,-2.39258 l 7.2031,-.0469 z  m -15.6875,8.2824 14.3032,-.0004 c -0.189669,1.3415 -3.1777,6.83227 -7.41406,6.87623 -4.80448,-0.306792 -6.93945,-1.51768 -6.92432,-6.47736 0.0073,-0.137131 0.0245,-0.264794 0.03516,-0.398437 z "/>
<g style="fill:#d2d2d2" id="g7">
<path style="font-family:'Bitstream Vera Serif';font-weight:bold;font-size:57.68214035px" id="path3137" d="m 31.5833,30.7363 0,-7.319 -7.202,.0473 c -5.48577,-0.110869 -8.24166,2.58651 -8.51981,7.83416 -0.01513,4.95969 3.118,7.9702 7.92248,8.27699 5.29589,-0.05496 7.59766,-4.03133 7.7993,-8.83949 m 5.8333,-11.3165 0,19.1642 4.6667,0 0,3.5 -10.5,-.0172 0,-3.8091 c -2.40312,3.54999 -5.92314,4.84116 -10.0629,4.99291 -7.40463,0.0086 -11.6642,-4.8678 -12.1038,-11.9518 0.0542,-8.47732 6.8071,-11.1493 14.3045,-11.509 l 7.8622,-.0473 v -2.91562 c 0.03414,-5.51847 -3.53108,-8.27536 -8.75,-8.5762 -4.50277,-0.060497 -6.71222,2.75635 -7.58333,7 h -3.5 v -7.38404 c 2.01205,-0.938711 4.20585,-1.93681 6.09217,-2.39477 1.90725,-0.480784 3.76212,-0.721194 5.5646,-0.721232 9.32121,-0.097741 13.5453,5.96383 14.0099,14.6692"/>
<rect width="42" x="3" y="27.233934" rx="1.1195858" height="4.6666665" ry="1.1195858" style="color:#000" id="rect3153"/>
</g>
</g>
</svg>
