<svg width="48" version="1.0" xmlns="http://www.w3.org/2000/svg" height="48">
<g style="stroke-opacity:0;stroke:#969696;stroke-width:2" id="g4">
<path style="opacity:.6;fill:#fff" id="path4142" d="m 42.8029,9.8537 c -7.47104,3.14687 -10.3096,6.6856 -17.3041,6.6856 -6.99455,0 -9.99294,-1.99893 -17.4669,-5.1458 -3.31468,-1.39563 -5.15065,1.89588 -3.28719,4.26059 l 18.2669,23.1805 c 1.19662,1.47381 3.77784,1.47381 4.97446,0 l 18.2668,-23.1805 c 1.87141,-2.3748 -1.22243,-6.58524 -3.44994,-5.80039 z "/>
<path style="fill:#919191" id="path3939" d="m 41.46575,9.8938 c -7.47104,3.14687 -10.4728,5.1458 -17.4674,5.1458 -6.99455,0 -9.99294,-1.99893 -17.4669,-5.1458 C 3.21677,8.49817 1.3808,11.78968 3.24426,14.15439 l 18.2669,23.1805 c 1.19662,1.47381 3.77784,1.47381 4.97446,0 l 18.2668,-23.1805 c 1.87141,-2.3748 0.0269,-5.6563 -3.28669,-4.26059 z"/>
</g>
</svg>
