<svg width="48" version="1.0" xmlns="http://www.w3.org/2000/svg" height="48">
<g style="opacity:.6;fill:#fff" id="g4139" transform="translate(0,1.4995525)">
<g id="g4141" transform="matrix(0,1,1,0,-59.94765,-1.061)">
<path style="stroke-opacity:0;stroke:#969696;stroke-width:2" id="path4143" d="m 7.5953,69.8414 c 7.47104,3.14687 10.4728,5.1458 17.4674,5.1458 6.99455,0 9.45657,-3.1741 17.2495,-5.41755 2.77117,-0.797774 5.36805,2.16763 3.50459,4.53234 l -18.2669,23.1805 c -1.19662,1.47381 -3.40671,1.71646 -5.17981,0.857552 l -18.0615,-24.0381 c -1.81625,-2.41725 -0.0269,-5.65631 3.28669,-4.26059 Z "/>
</g>
</g>
<g id="layer2">
<g id="g3937" transform="matrix(0,1,1,0,-59.94765,-1.061)">
<path style="stroke-opacity:0;fill:#919191;stroke:#969696;stroke-width:2" id="path3939" d="m 7.5953,69.8414 c 7.47104,3.14687 10.4728,5.1458 17.4674,5.1458 6.99455,0 9.99294,-1.99893 17.4669,-5.1458 3.31468,-1.39563 5.15065,1.89588 3.28719,4.26059 l -18.2669,23.1805 c -1.19662,1.47381 -3.77784,1.47381 -4.97446,0 l -18.2668,-23.1805 c -1.87141,-2.3748 -0.0269,-5.65631 3.28669,-4.26059 z "/>
</g>
</g>
</svg>
