<svg width="48" version="1.0" xmlns="http://www.w3.org/2000/svg" height="48">
<g style="opacity:.6;fill:#fff" id="g4139" transform="translate(0,1.4995525)">
<g id="g4141" transform="matrix(0,1,1,0,-59.94765,-1.061)">
<path style="stroke-opacity:0;stroke:#969696;stroke-width:2" id="path4143" d="m 8.2955,98.9536 c 7.47104,-3.14687 9.77262,-5.44543 16.7672,-5.44543 6.99455,0 8.59505,1.99935 16.0397,5.2149 3.79199,1.63787 7.15637,-1.83096 4.71437,-4.92983 l -18.2669,-23.1805 c -1.19662,-1.47381 -4.73443,-1.4729 -5.49863,-0.524172 l -19.0094,25.3209 c -1.81527,2.41798 1.93998,4.93987 5.25357,3.54417 z "/>
</g>
</g>
<path style="stroke-opacity:0;fill:#919191;stroke:#969696;stroke-width:2" id="path3939" d="m 38.1063,6.5343 c -3.14687,7.47104 -5.1458,10.4728 -5.1458,17.4674 0,6.99455 1.99893,9.99294 5.1458,17.4669 1.39563,3.31468 -1.89588,5.15065 -4.26059,3.28719 l -23.1805,-18.2669 c -1.47381,-1.19662 -1.47381,-3.77784 0,-4.97446 l 23.1805,-18.2668 c 2.3748,-1.87141 5.65631,-0.0269 4.26059,3.28669 z "/>
</svg>
