<svg xmlns:xlink="http://www.w3.org/1999/xlink" version="1.1" width="48" xmlns="http://www.w3.org/2000/svg" height="48">
<defs id="defs7222"/>
<g style="stroke:none" id="layer1">
<path style="fill:#195daf" id="path4167" d="M 9.96875,3.5 C 6.3897996,3.5 3.5,6.3363896 3.5,9.84375 l 0,28.3125 C 3.5,41.66361 6.3897996,44.5 9.96875,44.5 l 28.0625,0 C 41.6102,44.5 44.5,41.66361 44.5,38.15625 l 0,-28.3125 C 44.5,6.3363896 41.6102,3.5 38.03125,3.5 l -28.0625,0 z"/>
<g style="fill:#fff">
<path id="path4165" d="m 23.5312,9.5 c 0.514824,-0.014083 1.06787,-0.017274 1.5625,0 0.659504,0.023032 1.27502,0.09484 1.78125,0.1875 2.0249,0.370632 5.84434,2.05303 5.90625,5.4375 0.06191,3.38447 -2.05665,5.02629 -4.5625,7.03125 -2.51844,2.03782 -1.99926,5.04774 -2,7.0625 h -4.53125 v -2 c 0,-3.02213 1.54686,-5.07283 3.53125,-7.5625 1.99678,-2.50521 2.09032,-4.50442 1.53125,-5.5625 -0.559063,-1.05808 -1.94097,-1.30628 -2.9375,-1.25 -0.996528,0.05629 -1.58351,0.237538 -2.125,0.71875 -0.541493,0.481211 -0.860783,1.09607 -1.03125,1.5625 -0.170467,0.466427 -0.210754,1.28151 -0.4375,1.71875 -0.226746,0.437237 -0.848505,1.40809 -2.90625,1.15625 -2.05775,-0.251845 -2.58321,-2.70678 -1.625,-4.9375 0.958212,-2.23072 2.94814,-2.76576 4.15625,-3.125 0.679564,-0.202072 2.14303,-0.395264 3.6875,-0.4375 z "/>
<path id="rect3785" d="m 24.2812,31.2812 c 2.00034,0 3.65625,1.62466 3.65625,3.625 0,2.00034 -1.65591,3.59375 -3.65625,3.59375 -2.00034,0 -3.625,-1.59341 -3.625,-3.59375 0,-2.00034 1.62466,-3.625 3.625,-3.625 z "/>
</g>
</g>
</svg>
