<svg width="48" version="1.1" xmlns="http://www.w3.org/2000/svg" height="48">
<g style="stroke:none">
<path style="fill:#cd9023" id="path3006" d="m 24,2.5 c -11.8742,0 -21.5,9.62604 -21.5,21.5 0,11.8744 9.62577,21.5 21.5,21.5 11.8731,0 21.5,-9.6255 21.5,-21.5 0,-11.874 -9.62686,-21.5 -21.5,-21.5 Z "/>
<g style="fill:#fff">
<path id="path3004" d="m 23.55,6.9458 c 2.34835,0 4.25,1.90165 4.25,4.25 0,2.34835 -1.90165,4.25 -4.25,4.25 -2.34835,0 -4.25,-1.90165 -4.25,-4.25 0,-2.34835 1.90164,-4.25 4.25,-4.25 z "/>
<path id="path6495" d="m 17.7073,19.392 9.1768,0 0,16.2561 3.4085,0 0,2.622 -12.5854,0 0,-2.622 3.4085,0 0,-13.6341 -3.4085,0 0,-2.622 z "/>
</g>
</g>
</svg>
