<svg version="1.1" xmlns="http://www.w3.org/2000/svg" viewBox="0 0 16 16">
<defs id="defs1">
<style type="text/css" id="current-color-scheme">
.ColorScheme-Text {
color:#000;
}
</style>
</defs>
<path style="fill:currentColor;fill-opacity:1;stroke:none" id="path4" d="m 2,2 v 12 h 7 v -1 h -2 v -3 h 2 v -1 h -2 v -3 h 2 v 3 h 1 v -3 h 3 v 3 h 1 v -7 h -12 z  m 1,1 h 3 v 2 h -3 v -2 z  m 4,0 h 2 v 2 h -2 v -2 z  m 3,0 h 3 v 2 h -3 v -2 z  m -7,3 h 3 v 3 h -3 v -3 z  m 8,3 v 2 h -2 v 1 h 2 v 2 h 1 v -2 h 2 v -1 h -2 v -2 h -1 z  m -8,1 h 3 v 3 h -3 v -3 z " class="ColorScheme-Text"/>
</svg>
