<svg width="48" version="1.0" xmlns="http://www.w3.org/2000/svg" height="48">
<g style="stroke-linecap:round;stroke-dashoffset:1.4">
<path style="fill:#c8c8c8;stroke:#555753" id="rect2308" d="m 15.4999,15.5001 17.0002,0 0,6.9999 -17.0002,0 z "/>
<g style="stroke:#555" id="g15" transform="translate(0,2.00006)">
<g style="fill:#d2d2d2" id="g17">
<path id="path2387" d="m 26.5,23.5 c -0.09055,2.5472 3.53721,4.99994 6.93755,4.99994 h 17.0626 v -4.99994 z "/>
<path id="path2389" d="m 33.838,10.5 c -5.3998,3e-06 -7.13953,5.81282 -7.33795,9.00002 h 8.96882 v -4.00009 h 15.0313 v -4.99994 z "/>
<path id="path3250" d="m 21.5,23.5 c 0,2.27554 -4.43363,4.99994 -6.93755,4.99994 h -17.0626 v -4.99994 z "/>
<path id="path3254" d="m 14.162,10.5 c 5.9884,4e-06 7.13953,5.81282 7.33795,9.00002 h -8.96882 v -4.00009 h -15.0313 v -4.99994 z "/>
</g>
<path style="fill:#f0f0f0;stroke-linejoin:round" id="path2369" d="m 11.1874,15.5 c -0.41936,0.713364 -0.687505,3.57536 -0.687505,4.50009 -1e-6,2.49297 1.76628,4.49994 3.96878,4.49994 l 19.0626,0 c 2.20251,0 3.96878,-2.00697 3.96878,-4.49994 0,-0.924731 -0.268145,-3.78673 -0.687505,-4.50009 l -2.81252,0 c -1.21188,0 -2.20517,2.85885 -2.43752,4.0001 l -15.1251,0 C 16.205054,18.35885 15.21177,15.5 13.99989,15.5 Z"/>
</g>
</g>
</svg>
