<svg style="enable-background:new 0 0 256 256" viewBox="0 0 256 256" version="1.0" width="48" xmlns="http://www.w3.org/2000/svg" height="48">
<defs id="defs185"/>
<path style="fill:#429cd6;fill-rule:evenodd;stroke:none;color:#000;stroke-width:5.333" id="rect1332" d="m 97.2807,60.8696 0,36.3849 -36.3981,0 c -40.4853,-0.286939 -36.3981,-7.98127 -36.3981,30.7518 -1.66174,39.6429 -1.09247,30.7518 36.3981,30.7518 h 36.3981 v 36.3786 c -0.28915,40.4749 -7.96977,36.3786 30.7527,36.3786 39.6351,1.65895 30.7526,1.10606 30.7526,-36.3786 v -36.3786 h 36.3647 c 40.4666,0.29053 36.3647,7.96216 36.3647,-30.7518 1.6571,-39.6284 1.11458,-30.7518 -36.3647,-30.7518 h -36.3647 v -36.3849 c 0.28846,-40.4785 7.97341,-36.3849 -30.7526,-36.3849 -39.6378,-1.65982 -30.7527,-1.10185 -30.7527,36.3849 Z "/>
</svg>
