<svg width="48" version="1.0" xmlns="http://www.w3.org/2000/svg" height="48">
<g style="fill:none;stroke-linecap:round;stroke-width:3.088" id="layer1">
<path style="opacity:.6;stroke:#fff" id="path4141" d="m 14.7297,31.3196 0,-18.1439 c 0,0 -0.588883,-7.73182 10.194,-7.73182 10.7829,0 10.3497,7.73182 10.3497,7.73182 v 23.5792 c 0,0 -5.10998,8.60124 -8.7103,8.60124 -3.49848,0 -7.69853,-8.53757 -7.69853,-8.53757 v -16.2712 c 0,0 -0.219846,-4.75573 5.32514,-4.75573 5.44314,0 4.88629,3.55933 4.88629,3.55933 v 9.89304"/>
<path style="stroke:#787878" id="path4915" d="m 13.7298,29.3196 0,-18.1439 c 0,0 -0.588883,-7.73181 10.194,-7.73181 10.7829,0 10.3497,7.73181 10.3497,7.73181 v 23.5792 c 0,0 -5.10998,8.60124 -8.7103,8.60124 -3.49848,0 -7.69853,-8.53757 -7.69853,-8.53757 v -16.2712 c 0,0 -0.219846,-4.75573 5.32514,-4.75573 5.44314,0 4.88629,3.55933 4.88629,3.55933 v 9.89304"/>
</g>
</svg>
