<svg width="96" version="1.0" xmlns="http://www.w3.org/2000/svg" height="96">
<g style="text-align:start;stroke:none" id="g14">
<rect width="84" x="6" y="6" rx="6" height="84" ry="0.056761779" style="fill:#c3c3c3" id="rect2419"/>
<path style="fill:#f9f9f9" id="rect3043" d="m 80,22.418 0,51.164 C 80,76.805273 76.805273,80 73.582,80 L 22.418,80 C 19.194727,80 16,76.805273 16,73.582 L 16,22.418 C 16,19.194727 19.194727,16 22.418,16 l 51.164,0 C 76.805273,16 80,19.194727 80,22.418 Z"/>
<path style="fill:#e6e6e6" id="rect3813" d="m 78.5155,23.0327 0,49.9345 c 0,3.07375 -2.47453,5.54828 -5.54828,5.54828 h -49.9345 c -3.07375,0 -5.54828,-2.47453 -5.54828,-5.54828 v -49.9345 c 0,-3.07375 2.47453,-5.54828 5.54828,-5.54828 h 49.9345 c 3.07375,0 5.54828,2.47453 5.54828,5.54828 z "/>
<g style="line-height:125%;letter-spacing:0" id="g19" transform="translate(0,2)">
<path style="font-family:'DejaVu Sans'" id="path3693" d="m 33.1302,31.4548 c -3.1064,1.1e-05 -5.25857,0.355226 -6.45654,1.06564 -1.19799,0.710439 -1.79698,1.92235 -1.79697,3.63572 -6e-06,1.36515 0.445752,2.45169 1.33728,3.25961 0.905438,0.794012 2.13127,1.19102 3.67751,1.19101 2.13127,1e-06 3.8377,-0.752217 5.11926,-2.25666 1.29547,-1.51837 1.94322,-3.53124 1.94323,-6.03864 v -0.85669 h -3.82378 m 7.6685,-1.588 0,13.3519 -3.8447,0 0,-3.5521 c -0.877606,1.42086 -1.9711,2.47258 -3.28051,3.15514 -1.30943,0.668638 -2.91138,1.00296 -4.80584,1.00296 -2.39596,-1e-06 -4.30437,-0.668639 -5.72522,-2.00592 -1.40694,-1.3512 -2.11039,-3.15513 -2.11039,-5.41179 -3e-06,-2.63275 0.877582,-4.61777 2.63277,-5.95506 1.7691,-1.33726 4.40187,-2.0059 7.8983,-2.00592 h 5.3909 v -0.376109 c -1.9e-05,-1.76909 -0.585077,-3.13423 -1.75518,-4.09541 -1.1562,-0.975078 -2.78601,-1.46263 -4.88942,-1.46265 -1.33729,1.9e-05 -2.63974,0.160214 -3.90736,0.480584 -1.26763,0.320409 -2.48651,0.800993 -3.65662,1.44175 v -3.55214 c 1.40692,-0.543245 2.77206,-0.947212 4.09541,-1.21191 1.32334,-0.278576 2.61186,-0.417875 3.86557,-0.417899 3.38496,2.4e-05 5.91326,0.877615 7.58487,2.63277 1.67158,1.7552 2.50738,4.41582 2.5074,7.98188"/>
<g style="font-family:'Bitstream Vera Sans';word-spacing:0" id="g22">
<g style="font-weight:bold;font-size:40px" id="text4156">
<path id="path4157" d="m 61.7797,58.6479 q 2.24609,0 3.41797,-1.64062 1.19141,-1.64062 1.19141,-4.76562 0,-3.125 -1.19141,-4.76562 -1.17188,-1.64062 -3.41797,-1.64062 -2.24609,0 -3.45703,1.66016 -1.19141,1.64062 -1.19141,4.74609 0,3.10547 1.19141,4.76562 1.21094,1.64062 3.45703,1.64062 z  m -4.6484,-14.1602 q 1.44531,-1.91406 3.20312,-2.8125 1.75781,-0.917969 4.04297,-0.917969 4.04297,0 6.64062,3.22266 2.59766,3.20312 2.59766,8.26172 0,5.05859 -2.59766,8.28125 -2.59766,3.20312 -6.64062,3.20312 -2.28516,0 -4.04297,-0.898437 -1.75781,-0.917969 -3.20312,-2.83203 v 3.16406 h -6.99219 v -30.3906 h 6.99219 v 11.7188 z "/>
</g>
<g style="font-style:oblique;font-size:49.20927048px" id="text4160">
<path id="path4160" d="m 45.8922,48.4321 -.889,4.3731 q -1.58585,-1.15334 -3.38794,-1.73001 -1.77807,-0.576671 -3.70031,-0.576671 -2.11446,0 -4.0367,0.744867 -1.89821,0.744867 -3.19572,2.11446 -2.0664,2.09043 -3.19572,4.9017 -1.12931,2.81127 -1.12931,5.81477 0,3.62822 1.8021,5.40629 1.82613,1.77807 5.52643,1.77807 1.82612,0 3.8685,-0.552643 2.06641,-0.552643 4.301,-1.65793 l -.841,4.3731 q -1.92224,0.792923 -3.96461,1.17737 -2.01835,0.408476 -4.15684,0.408476 -5.35824,0 -8.24159,-2.6671 -2.88336,-2.69113 -2.88336,-7.66492 0,-4.18087 1.48973,-7.68895 1.51376,-3.53211 4.4692,-6.34338 2.01835,-1.92224 4.73351,-2.90738 2.71516,-0.985146 5.93491,-0.985146 1.87418,0 3.72433,0.432503 1.85015,0.408476 3.77239,1.24945 z "/>
</g>
</g>
</g>
</g>
</svg>
