<svg width="16" version="1.1" xmlns="http://www.w3.org/2000/svg" height="16">
<defs id="defs1">
<style type="text/css" id="current-color-scheme">
.ColorScheme-Text {
color:#000;
}
</style>
</defs>
<path style="fill:currentColor;fill-opacity:1;stroke:none" id="path823" d="m 13.1934,1 l -1.3574,1.2578 c -0.397851,0.368381 -0.467984,1.00596 -0.236329,1.49414 l -5.1895,5.25 c -0.0086,-8.37e-05 -0.0167856,-8.37e-05 -0.0253906,0 -0.62304,-0.276746 -1.11181,-0.138703 -1.50391,0.255859 l -3.4785,3.5 c -1.29566,1.23919 0.644903,3.13126 1.875,1.82813 l 3.4785,-3.498 c 0.413929,-0.395874 0.520045,-1.01217 0.261719,-1.52148 l 5.1895,-5.2227 c 0.491526,0.217436 1.12187,0.128614 1.50391,-0.255859 l 1.248,-1.3652 -1.7656,-1.7227 z  m -9.084,.0781 c -0.351872,0 -0.691365,0.0807911 -1.00586,0.189453 l 1.6602,1.6465 c 0.341316,0.338161 0.341316,0.874703 0,1.21289 l -.627,.6211 c -0.341316,0.33817 -0.883306,0.33817 -1.22461,0 l -1.6621,-1.6445 c -0.109651,0.311582 -0.189453,0.647457 -0.189453,0.996094 0,1.66869 1.36465,3.02148 3.04883,3.02148 0.351872,0 0.693319,-0.0788571 1.00781,-0.1875 l 1.0352,1.0254 1.877,-1.8066 -1.0605,-1.0547 c 0.109651,-0.311591 0.189453,-0.649413 0.189453,-0.998047 0,-1.66869 -1.36465,-3.02148 -3.04883,-3.02148 z  m 5.7715,6.9062 l -1.7969,1.8906 1.0078,.998 c -0.109651,0.311626 -0.191406,0.647465 -0.191406,0.996094 0,1.66869 1.3666,3.02148 3.05078,3.02148 0.381946,0 0.750943,-0.087801 1.08789,-0.214844 l -1.7676,-1.7539 c -0.341317,-0.338178 -0.341317,-0.902047 0,-1.24023 l .5977,-.5938 c 0.517572,-0.420248 0.900997,-0.349924 1.25391,0 l 1.7129,1.6992 c 0.092389,-0.288532 0.164062,-0.599131 0.164062,-0.917968 0,-1.66869 -1.36465,-3.02148 -3.04883,-3.02148 -0.351872,0 -0.693328,0.0808092 -1.00781,0.189453 l -1.0625,-1.0527 z " class="ColorScheme-Text"/>
</svg>
