<svg width="48" version="1.0" xmlns="http://www.w3.org/2000/svg" height="48">
<g id="layer2">
<g id="g3937" transform="matrix(0,1,1,0,-59.94765,-1.061)">
<path style="fill:#ecf0f1" id="rect4090" d="m 2.0634,61.9477 45.9976,0 0,43.8147 -46,.1853 .0024,-14.3607 z "/>
<g style="stroke:none;letter-spacing:0" id="g8">
<path style="fill:#2b88c5" id="path3939" d="m 30.6837,62.9661 c -1.28412,0.0063 -2.44449,1.38928 -2.4375,2.24457 v 4.77066 l -21.131,-.0208 c -1.29454,-0.0047 -1.87541,0.782071 -1.86838,1.64429 v 4.15971 c -0.007,0.862218 0.573834,1.64897 1.86838,1.64429 h 21.131 v 5.25086 c -0.0088,0.620647 0.563228,1.82851 1.40567,2.09383 0.842447,0.265328 1.91094,0.174047 2.62558,-0.224303 l 12.0004,-9.3246 c 1.12955,-0.610832 1.12955,-1.92845 0,-2.53928 l -12.0004,-9.3246 c -0.443334,-0.244017 -1.01866,-0.379262 -1.59375,-0.374648 z "/>
<g style="font-family:'Bitstream Vera Sans';text-align:start;word-spacing:0;line-height:100%;font-size:23.31949043px" id="g11">
<g style="font-weight:bold" id="text2992" transform="matrix(0,1,1,0,0,0)">
<path id="path4151" d="m 99.5006,18.8389 -6.8547,0 -1.0817,3.0971 -4.4066,0 6.2967,-17 5.2264,0 6.2967,17 -4.4066,0 -1.0703,-3.0971 z  m -5.7616,-3.1541 4.6571,0 -2.3228,-6.7636 -2.3342,6.7636 z "/>
</g>
<g style="font-weight:bold" id="text2996" transform="matrix(0,1,1,0,0,0)">
<path id="path4148" d="m 88.5953,28.186 14.29,0 0,2.653 -9.1206,11.0335 9.3824,0 0,3.3135 -14.8138,0 0,-2.653 9.1206,-11.0335 -8.8587,0 0,-3.3135 z "/>
</g>
</g>
</g>
</g>
</g>
</svg>
